<?xml version="1.0" encoding="utf-8"?>
<!-- Generator: Adobe Illustrator 23.0.3, SVG Export Plug-In . SVG Version: 6.00 Build 0)  -->
<svg version="1.1" id="Layer_1" xmlns="http://www.w3.org/2000/svg" xmlns:xlink="http://www.w3.org/1999/xlink" x="0px" y="0px"
	 viewBox="0 0 256 256" style="enable-background:new 0 0 256 256;" xml:space="preserve">
<style type="text/css">
	.st0{fill-rule:evenodd;clip-rule:evenodd;fill:#990000;stroke:#000000;stroke-width:0.2393;}
	.st1{fill:url(#SVGID_1_);stroke:#000000;stroke-width:0.2393;}
	.st2{fill:url(#SVGID_2_);stroke:#000000;stroke-width:0.2393;}
	.st3{fill:url(#SVGID_3_);stroke:#191919;stroke-width:0.2393;}
	.st4{fill:url(#SVGID_4_);stroke:#000000;stroke-width:0.2393;}
	.st5{fill-rule:evenodd;clip-rule:evenodd;fill:#FFFFFF;stroke:#000000;stroke-width:0.2393;}
	.st6{fill-rule:evenodd;clip-rule:evenodd;fill:#FFFFFF;stroke:#000000;stroke-width:0.2163;}
	.st7{fill-rule:evenodd;clip-rule:evenodd;fill:#FFFFFF;stroke:#000000;stroke-width:0.1933;}
	.st8{fill-rule:evenodd;clip-rule:evenodd;fill:#FFFFFF;stroke:#000000;stroke-width:0.1704;}
	.st9{fill-rule:evenodd;clip-rule:evenodd;fill:#FFFFFF;stroke:#000000;stroke-width:0.1474;}
	.st10{fill-rule:evenodd;clip-rule:evenodd;fill:#FFFFFF;stroke:#000000;stroke-width:0.1244;}
	.st11{fill:url(#_43523648_1_);stroke:#000000;stroke-width:0.0729;}
	.st12{fill-rule:evenodd;clip-rule:evenodd;fill:url(#_42864552_1_);stroke:#000000;stroke-width:0.0729;}
	.st13{fill-rule:evenodd;clip-rule:evenodd;fill:#BABABC;stroke:#000000;stroke-width:0.0729;}
	.st14{fill-rule:evenodd;clip-rule:evenodd;fill:url(#_42345728_1_);stroke:#000000;stroke-width:0.0729;}
	.st15{fill-rule:evenodd;clip-rule:evenodd;fill:#6E6D6D;stroke:#000000;stroke-width:0.0729;}
	.st16{fill-rule:evenodd;clip-rule:evenodd;fill:#333333;stroke:#000000;stroke-width:0.2393;}
	.st17{fill-rule:evenodd;clip-rule:evenodd;fill:url(#_84491016_1_);stroke:#000000;stroke-width:0.2201;}
	.st18{fill-rule:evenodd;clip-rule:evenodd;fill:url(#_43649056_1_);stroke:#000000;stroke-width:0.201;}
	.st19{fill-rule:evenodd;clip-rule:evenodd;fill:url(#_43525312_1_);stroke:#000000;stroke-width:0.1818;}
	.st20{fill-rule:evenodd;clip-rule:evenodd;fill:url(#_85285848_1_);stroke:#000000;stroke-width:0.1627;}
	.st21{fill-rule:evenodd;clip-rule:evenodd;fill:url(#_43523600_1_);stroke:#000000;stroke-width:0.1436;}
	.st22{fill-rule:evenodd;clip-rule:evenodd;fill:url(#SVGID_5_);stroke:#000000;stroke-width:0.1244;}
	.st23{fill:#666666;stroke:#4C4C4C;stroke-width:1.3399;stroke-dasharray:2.6798,1.3399;}
	.st24{fill:none;}
</style>
<g id="Layer_x0020_1">
	<path class="st0" d="M130.21,11.36c14.8,0.82,30.57,0.1,37.81,0.03c32.12-0.31,51.03-1.83,81.57-4.02
		c0.96-0.07,1.81,0.23,2.51,0.88c0.7,0.65,1.07,1.48,1.07,2.44l0.59,159.79c0.01,1.72-1.27,3.15-2.97,3.34
		c-28.47,3.2-48.34,3.37-77.47,3.96c-10.94,0.22-23.96,1.93-43.11-0.26l-0.01-0.59l-7.81-1.15v-0.25
		c-8.68,1.47-20.38,2.06-32.25,1.87c-28.9-0.47-53.6-2.57-80.19-4.23c-1.71-0.11-3.05-1.46-3.13-3.17
		C4.8,130.31,2.72,63.41,0.67,9.63C0.63,8.62,0.99,7.74,1.74,7.05c0.74-0.69,1.65-0.98,2.66-0.87c30.55,3.52,57.92,4.23,88.25,5.32
		c9.31,0.33,19.75,1.88,29.92-0.6l0,0.05c2.68-1.67,5.21-1.44,7.64,0.11L130.21,11.36L130.21,11.36z"/>
	
		<radialGradient id="SVGID_1_" cx="80.4525" cy="125.7787" r="4.825" gradientTransform="matrix(2.9618 0 0 -2.9618 -219.9454 538.3491)" gradientUnits="userSpaceOnUse">
		<stop  offset="0" style="stop-color:#CCCCCC"/>
		<stop  offset="0.1882" style="stop-color:#7F7F66"/>
		<stop  offset="1" style="stop-color:#333300"/>
	</radialGradient>
	<path class="st1" d="M20.85,176.71c-1.51-0.1-3.02-0.2-4.54-0.3c-1.75-0.11-3.29-0.21-4.56-0.29l-0.03,0l0,0l-0.02,0
		c-0.45-0.03-0.89-0.11-1.31-0.23c-0.41-0.12-0.82-0.28-1.22-0.49c-1.96-1.02-3.31-3.01-3.43-5.35c-0.12-2.3-0.24-4.84-0.37-7.57
		C5.25,160,5.13,157.26,5,154.32c-0.08-1.89,1.38-3.48,3.27-3.56c1.24-0.05,2.36,0.56,3,1.53l0,0l12.65,19.13
		c1.04,1.57,0.61,3.7-0.96,4.74C22.3,176.58,21.56,176.76,20.85,176.71L20.85,176.71L20.85,176.71z"/>
	<polygon points="249.94,170.46 249.94,170.45 249.94,170.46 	"/>
	<path d="M249.94,170.48v-0.02l0,0l0,0C249.94,170.47,249.94,170.5,249.94,170.48L249.94,170.48z"/>
	
		<radialGradient id="SVGID_2_" cx="157.15" cy="125.3715" r="5.2627" gradientTransform="matrix(2.9618 0 0 -2.9618 -219.9454 538.3491)" gradientUnits="userSpaceOnUse">
		<stop  offset="0" style="stop-color:#CCCCCC"/>
		<stop  offset="0.1882" style="stop-color:#7F7F66"/>
		<stop  offset="1" style="stop-color:#333300"/>
	</radialGradient>
	<path class="st2" d="M255.96,157.54l0.04,10.39c0,0.26-0.01,0.5-0.03,0.73c-0.05,0.51-0.15,0.99-0.28,1.43
		c-0.14,0.46-0.33,0.9-0.56,1.32c-1.09,1.99-3.09,3.4-5.5,3.67c-3.52,0.4-7.16,0.77-10.95,1.12c-3.84,0.36-7.24,0.64-10.29,0.86
		c-2.11,0.15-3.94-1.44-4.09-3.55c-0.11-1.49,0.66-2.85,1.86-3.56l23.87-15.79c1.76-1.17,4.14-0.68,5.3,1.08
		C255.8,155.93,256,156.74,255.96,157.54L255.96,157.54z"/>
	
		<radialGradient id="SVGID_3_" cx="158.2349" cy="175.2447" r="5.3246" gradientTransform="matrix(2.9618 0 0 -2.9618 -219.9454 538.3491)" gradientUnits="userSpaceOnUse">
		<stop  offset="0" style="stop-color:#CCCCCC"/>
		<stop  offset="0.651" style="stop-color:#7F7F66"/>
		<stop  offset="1" style="stop-color:#333300"/>
	</radialGradient>
	<path class="st3" d="M239.79,5.94l4.11-0.3c1.59-0.11,3.22-0.23,4.9-0.35l0.01,0c0.04,0,0.08,0,0.11-0.01h0l0.02,0
		c0.15-0.01,0.31-0.01,0.48,0c0.2,0.01,0.4,0.03,0.61,0.06c1.06,0.17,2.01,0.63,2.81,1.37c0.13,0.12,0.25,0.24,0.36,0.36
		c0.11,0.12,0.23,0.27,0.37,0.47c0.12,0.17,0.23,0.34,0.33,0.51c0.44,0.78,0.66,1.65,0.67,2.59l0,0.01h0l0.06,15.93
		c0,1.59-1.29,2.87-2.87,2.87c-1,0-1.88-0.51-2.39-1.29l0,0L237.6,10.4c-0.88-1.32-0.51-3.11,0.81-3.98
		C238.84,6.13,239.32,5.98,239.79,5.94L239.79,5.94L239.79,5.94z"/>
	
		<radialGradient id="SVGID_4_" cx="79.2336" cy="176.709" r="4.4104" gradientTransform="matrix(2.9618 0 0 -2.9618 -219.9454 538.3491)" gradientUnits="userSpaceOnUse">
		<stop  offset="0" style="stop-color:#CCCCCC"/>
		<stop  offset="0.1882" style="stop-color:#7F7F66"/>
		<stop  offset="1" style="stop-color:#333300"/>
	</radialGradient>
	<path class="st4" d="M21.3,9.2L2.39,21.7c-0.58,0.38-1.37,0.23-1.75-0.36c-0.14-0.22-0.21-0.46-0.21-0.7l-0.21-5.66
		C0.14,13.1,0.07,11.23,0,9.38l0-0.01l0-0.02l0-0.04c0-0.17,0-0.32,0.01-0.45c0.01-0.15,0.04-0.31,0.07-0.48
		c0.17-0.8,0.57-1.51,1.21-2.1l0,0l0,0L1.3,6.27c0.12-0.11,0.25-0.22,0.38-0.31C1.8,5.87,1.93,5.78,2.09,5.69
		c0.73-0.41,1.54-0.56,2.4-0.47c2.85,0.33,5.59,0.62,8.22,0.88c2.57,0.25,5.26,0.49,8.07,0.73c0.7,0.06,1.21,0.67,1.16,1.36
		C21.9,8.63,21.65,9,21.3,9.2L21.3,9.2z"/>
	<path class="st5" d="M125.96,14.48c14.78,1.34,29.56,3.01,37.13,2.84c32.71-0.72,51.52-0.84,83.62-6.85l0.6,164.72
		c-29.56,5.08-49.46,7.5-79.02,8.48c-10.69,0.35-23.19-0.4-41.73-4.48L125.96,14.48L125.96,14.48z"/>
	<g id="_43521432">
		<path id="_43045248" class="st6" d="M125.96,14.85c14.58,1.77,29.4,3.63,36.91,3.56c32.48-0.27,51.65-0.22,82.76-6.38
			c0.33,54.78,0.66,109.56,0.98,164.34c-29.39,4.89-49.17,7.17-78.56,7.96c-10.63,0.28-23.06-0.56-41.49-4.75
			C126.36,124.66,126.16,69.75,125.96,14.85L125.96,14.85z"/>
		<path id="_43790008" class="st7" d="M125.96,15.21c14.38,2.21,29.23,4.24,36.7,4.28c32.25,0.18,51.77,0.41,81.89-5.92
			c0.45,54.65,0.91,109.31,1.36,163.96c-29.22,4.69-48.89,6.85-78.1,7.43c-10.57,0.21-22.93-0.71-41.25-5.03
			C126.36,125.03,126.16,70.12,125.96,15.21L125.96,15.21z"/>
		<path id="_43793600" class="st8" d="M125.96,15.57c14.18,2.64,29.06,4.86,36.48,5.01c32.02,0.63,51.9,1.04,81.02-5.46
			c0.58,54.53,1.16,109.05,1.74,163.58c-29.04,4.49-48.6,6.52-77.65,6.91c-10.51,0.14-22.79-0.86-41.01-5.31
			C126.36,125.39,126.16,70.48,125.96,15.57L125.96,15.57z"/>
		<path id="_43753608" class="st9" d="M125.96,15.93c13.98,3.08,28.9,5.47,36.27,5.73c31.79,1.08,52.02,1.67,80.15-4.99
			c0.71,54.4,1.42,108.8,2.13,163.2c-28.87,4.3-48.31,6.19-77.19,6.38c-10.44,0.07-22.66-1.02-40.76-5.58
			C126.35,125.76,126.16,70.85,125.96,15.93L125.96,15.93z"/>
	</g>
	<path class="st10" d="M125.96,16.3c13.77,3.52,28.73,6.09,36.05,6.45c31.56,1.54,52.14,2.29,79.28-4.53l2.51,162.82
		c-28.7,4.1-48.03,5.86-76.73,5.86c-10.38,0-22.52-1.17-40.52-5.86L125.96,16.3L125.96,16.3z"/>
	<path d="M167.56,132.21v-1.66c2.77,0,4.85-0.69,6.23-2.08c1.39-1.39,2.2-2.93,2.43-4.63c0.24-1.7,0.36-3.66,0.36-5.88V61.32
		c0-0.47-0.02-0.85-0.06-1.13c-0.04-0.28-0.06-0.57-0.06-0.89c-0.08-0.47-0.12-1.13-0.12-1.96c0-0.83-0.08-1.41-0.24-1.72
		c-0.87-2.85-3.25-4.16-7.12-3.92c-2.69,0.16-5.26,0.83-7.72,2.02c-2.45,1.19-4.71,2.77-6.77,4.75c-2.06,1.98-3.52,3.88-4.39,5.7
		h-1.66l3.68-16.15h57.83l3.68,16.15h-1.66c-2.3-4.43-5.36-7.56-9.2-9.38c-3.84-1.82-7.07-2.85-9.68-3.09
		c-1.66-0.32-3.25-0.26-4.75,0.18c-1.5,0.44-2.45,1.68-2.85,3.74c0,0.63,0,1.25,0,1.84c0,0.59,0,1.21,0,1.84v2.02v56.64
		c0,2.22,0.12,4.18,0.36,5.88c0.24,1.7,1.05,3.25,2.43,4.63c1.39,1.39,3.46,2.08,6.23,2.08v1.66H167.56L167.56,132.21z"/>
	<g id="_43312824">
		
			<radialGradient id="_43523648_1_" cx="124.5106" cy="142.2748" r="32.2782" gradientTransform="matrix(2.9618 0 0 -2.9618 -219.9454 538.3491)" gradientUnits="userSpaceOnUse">
			<stop  offset="0" style="stop-color:#FFFFFF"/>
			<stop  offset="1" style="stop-color:#000000"/>
		</radialGradient>
		<path id="_43523648" class="st11" d="M129.71,210.89c-1.14,4.26-2.94,9.01-4.69,13.6c-0.55,1.44-1.09,2.87-1.26,3.31l-0.01,0.02
			c-1.68,4.5-3.62,8.35-5.71,11.68c-2.12,3.37-4.36,6.17-6.63,8.54c-3.96,4.13-6.92,3.35-9.4-0.5l0.01-0.01
			c-1.59-2.48-2.16-5.98-2.81-9.93c-0.26-1.62-0.54-3.34-0.84-4.72l0,0h0c-1.78-8.37,0.86-13.52,3.97-19.56
			c0.73-1.42,1.5-2.91,2.15-4.37c1.29-2.91,3.11-6.26,5.06-9.32c3.1-7.1,7.7-9.68,10.34-13.65c2.93-4.41,1.76-7.64,3.75-14.63
			l32.61-111.76c0.92,8.09,3.94,16.42,2.8,24.29l-17.99,64.98c-3.55,11.81-9.98,17-13.3,27.67l0.76,11.51c0,0,3.13,11.07,2.64,17.2
			C130.97,207.55,130.4,209.35,129.71,210.89L129.71,210.89z M121.29,195.15c-3.1-0.66-9.71,9.46-12.92,16.68
			c-3.21,7.22-7.34,11.98-5.7,19.65c1.64,7.68,1.7,16.48,5.87,12.13c4.17-4.35,8.11-10.11,11.19-18.32
			c3.07-8.21,7.09-17.92,6.68-22.36C125.99,198.49,124.39,195.81,121.29,195.15L121.29,195.15z"/>
		<g>
			
				<radialGradient id="_42864552_1_" cx="121.0687" cy="143.628" r="28.8254" gradientTransform="matrix(2.9618 0 0 -2.9618 -219.9454 538.3491)" gradientUnits="userSpaceOnUse">
				<stop  offset="0" style="stop-color:#FFFFFF"/>
				<stop  offset="1" style="stop-color:#000000"/>
			</radialGradient>
			<path id="_42864552" class="st12" d="M168.61,197.48c2.84-1.63,8.43,2.56,12.49,9.37c4.06,6.81,5.04,13.65,2.2,15.29
				c-2.84,1.63-8.43-2.56-12.49-9.37C166.75,205.96,165.76,199.12,168.61,197.48L168.61,197.48z M165.47,207.02
				c0.88,2.29,2.02,4.63,3.36,6.88c5.61,9.42,13.35,15.22,17.28,12.96c3.93-2.26,2.57-11.73-3.04-21.15
				c-4.78-8.03-13.22-12.73-15.55-13.44c-2.32-0.71-11.2-6.63-14.42-10.59c-3.22-3.97-12.43-20.15-15.19-25.2
				c-2.76-5.05-50.17-99.88-50.17-99.88L86.9,76.01l41.45,89.29c0,0,5.36,1.81,10.06,6.46c4.7,4.65,12.71,11.98,14.88,15.63
				C155.46,191.04,163.01,200.48,165.47,207.02L165.47,207.02z"/>
			<polygon id="_43258800" class="st13" points="87.74,56.6 87.32,66.3 119.49,133.96 128.98,138.9 			"/>
		</g>
		
			<radialGradient id="_42345728_1_" cx="118.926" cy="129.307" r="1.6112" gradientTransform="matrix(2.9618 0 0 -2.9618 -219.9454 538.3491)" gradientUnits="userSpaceOnUse">
			<stop  offset="0" style="stop-color:#FFFFFF"/>
			<stop  offset="1" style="stop-color:#000000"/>
		</radialGradient>
		<path id="_42345728" class="st14" d="M129,152.34c2.02-0.28,4.35,1.62,5.2,4.24c0.86,2.62-0.09,4.97-2.1,5.25
			c-2.02,0.28-4.35-1.62-5.2-4.24C126.04,154.97,126.98,152.62,129,152.34L129,152.34z"/>
		<path id="_43258848" class="st15" d="M133.95,160.63c-0.31,0.49-0.75,0.86-1.29,1.06l-5.51-8.15c0.31-0.49,0.75-0.86,1.29-1.06
			L133.95,160.63L133.95,160.63z"/>
	</g>
	<path class="st16" d="M6.25,8.7c32.5,4.34,61.3,5.92,93.2,7.12c8.25,0.31,15.7-0.81,26.89-2.11c-0.3,33.82-0.61,67.64-0.91,101.45
		c3.25,17.16-3.25,44.12,3.45,60.3c-10.54,4.12-21.78,0.81-33.28,2.52c-29.63,4.42-54.03-4.4-81.06-6.9
		C5.05,131.69,9.01,62.83,6.25,8.7L6.25,8.7z"/>
	<g id="_41946696">
		
			<linearGradient id="_84491016_1_" gradientUnits="userSpaceOnUse" x1="75.1608" y1="150.1131" x2="118.8446" y2="148.5995" gradientTransform="matrix(2.9618 0 0 -2.9618 -219.9454 538.3491)">
			<stop  offset="0" style="stop-color:#2F2D2A"/>
			<stop  offset="0.0588" style="stop-color:#53514C"/>
			<stop  offset="0.749" style="stop-color:#524F44"/>
			<stop  offset="0.9216" style="stop-color:#37332B"/>
			<stop  offset="1" style="stop-color:#312E2A"/>
		</linearGradient>
		<path id="_84491016" class="st17" d="M6.92,10.32c31.79,4.65,60.71,5.76,92.38,6.76c8.3,0.26,16.23-0.88,27.08-2.84
			c-0.3,33.82-0.61,67.64-0.91,101.46c3.24,17.13-3.04,41.86,3.64,57.99c-10.5,4.19-21.89,3.24-33.35,5.04
			c-29.51,4.62-53.82-4.03-80.74-6.33C5.56,133.06,9.7,64.33,6.92,10.32L6.92,10.32z"/>
		
			<linearGradient id="_43649056_1_" gradientUnits="userSpaceOnUse" x1="75.5311" y1="149.6355" x2="118.7253" y2="148.4384" gradientTransform="matrix(2.9618 0 0 -2.9618 -219.9454 538.3491)">
			<stop  offset="0" style="stop-color:#2C2923"/>
			<stop  offset="0.0588" style="stop-color:#747067"/>
			<stop  offset="0.749" style="stop-color:#716C56"/>
			<stop  offset="0.9216" style="stop-color:#3C3424"/>
			<stop  offset="1" style="stop-color:#302A22"/>
		</linearGradient>
		<path id="_43649056" class="st18" d="M7.58,11.94c31.08,4.97,60.12,5.6,91.56,6.39c8.35,0.21,16.75-0.94,27.26-3.57
			c-0.3,33.82-0.6,67.65-0.9,101.47c3.23,17.11-2.82,39.59,3.82,55.68c-10.46,4.26-22.01,5.68-33.42,7.55
			c-29.39,4.83-53.61-3.65-80.42-5.77C6.07,134.43,10.39,65.84,7.58,11.94L7.58,11.94z"/>
		
			<linearGradient id="_43525312_1_" gradientUnits="userSpaceOnUse" x1="75.9005" y1="149.1626" x2="118.6038" y2="148.275" gradientTransform="matrix(2.9618 0 0 -2.9618 -219.9454 538.3491)">
			<stop  offset="0" style="stop-color:#29251B"/>
			<stop  offset="0.0588" style="stop-color:#958F82"/>
			<stop  offset="0.749" style="stop-color:#908967"/>
			<stop  offset="0.9216" style="stop-color:#41351D"/>
			<stop  offset="1" style="stop-color:#2F261A"/>
		</linearGradient>
		<path id="_43525312" class="st19" d="M8.25,13.56C38.62,18.84,67.78,19,99,19.59c8.4,0.15,17.28-1,27.44-4.29
			c-0.3,33.82-0.6,67.65-0.9,101.47c3.22,17.09-2.61,37.33,4.01,53.37c-10.42,4.34-22.12,8.12-33.49,10.07
			c-29.28,5.03-53.39-3.28-80.1-5.21C6.58,135.8,11.08,67.34,8.25,13.56L8.25,13.56z"/>
		
			<linearGradient id="_85285848_1_" gradientUnits="userSpaceOnUse" x1="76.269" y1="148.6941" x2="118.4802" y2="148.1093" gradientTransform="matrix(2.9618 0 0 -2.9618 -219.9454 538.3491)">
			<stop  offset="0" style="stop-color:#252013"/>
			<stop  offset="0.0588" style="stop-color:#B5AD9C"/>
			<stop  offset="0.749" style="stop-color:#AFA679"/>
			<stop  offset="0.9216" style="stop-color:#453515"/>
			<stop  offset="1" style="stop-color:#2D2111"/>
		</linearGradient>
		<path id="_85285848" class="st20" d="M8.92,15.18c29.66,5.6,58.94,5.28,89.93,5.67c8.45,0.1,17.8-1.06,27.63-5.02
			c-0.3,33.83-0.6,67.65-0.9,101.48c3.2,17.07-2.4,35.07,4.19,51.06c-10.38,4.41-22.23,10.55-33.56,12.59
			c-29.16,5.24-53.18-2.9-79.78-4.64C7.1,137.17,11.77,68.85,8.92,15.18L8.92,15.18z"/>
		
			<linearGradient id="_43523600_1_" gradientUnits="userSpaceOnUse" x1="76.8292" y1="148.0109" x2="118.1511" y2="148.0109" gradientTransform="matrix(2.9618 0 0 -2.9618 -219.9454 538.3491)">
			<stop  offset="0" style="stop-color:#221C0B"/>
			<stop  offset="0.0588" style="stop-color:#D6CCB7"/>
			<stop  offset="0.749" style="stop-color:#CEC38A"/>
			<stop  offset="0.9216" style="stop-color:#4A360E"/>
			<stop  offset="1" style="stop-color:#2C1D09"/>
		</linearGradient>
		<path id="_43523600" class="st21" d="M9.59,16.8c28.95,5.91,58.35,5.11,89.11,5.3c8.5,0.05,18.33-1.12,27.81-5.75
			c-0.3,33.83-0.6,67.66-0.89,101.49c3.19,17.04-2.19,32.81,4.38,48.76c-10.34,4.48-22.34,12.99-33.62,15.1
			c-29.04,5.45-52.97-2.53-79.46-4.08C7.61,138.55,12.45,70.35,9.59,16.8L9.59,16.8z"/>
	</g>
	
		<linearGradient id="SVGID_5_" gradientUnits="userSpaceOnUse" x1="77.0022" y1="147.7707" x2="118.2266" y2="147.7707" gradientTransform="matrix(2.9618 0 0 -2.9618 -219.9454 538.3491)">
		<stop  offset="0" style="stop-color:#1F1804"/>
		<stop  offset="0.0588" style="stop-color:#F7ECD2"/>
		<stop  offset="0.749" style="stop-color:#EDE09C"/>
		<stop  offset="0.9216" style="stop-color:#4F3707"/>
		<stop  offset="1" style="stop-color:#2B1A02"/>
	</linearGradient>
	<path class="st22" d="M10.26,18.42c28.24,6.23,57.76,4.95,88.3,4.94c8.55,0,18.86-1.18,27.99-6.47
		c-0.3,33.83-0.59,67.66-0.89,101.49c3.18,17.02-1.98,30.55,4.57,46.45c-10.29,4.56-22.46,15.42-33.69,17.62
		c-28.93,5.65-52.76-2.15-79.14-3.52C8.12,139.92,13.14,71.86,10.26,18.42L10.26,18.42z"/>
	<path class="st23" d="M88.56,64.86l-1.27,0.18l-1.31-2.21L84.7,63l-0.41-0.69l-0.02-0.03l0,0c-1.14-1.5-2.56-2.83-4.24-4.02
		c-2.31-1.62-4.86-2.78-7.64-3.48l-1.45-0.27l-0.72-0.14l-0.85-0.16l-1.35,1.25l-2.65-2.56l-1.35,1.25l-0.08,0l-1.03,1.52
		l-3.16-1.88l-1.03,1.52l-1.08,0.24l-0.77,1.34l-3.1-0.02l-0.77,1.34l-0.63,0.36l-0.76,0.52l-0.06,0.04l-0.04,0.03l-0.03,0.02
		l-0.3,0.23l-0.59,0.48l-1.58,1.63l-0.35,0.48c-0.05,0.07-0.09,0.14-0.14,0.21c-1.49,2.33-2.41,4.69-2.78,7.07l0.01,0.48l0.04,4.48
		l0,0.09l0.82,2.19l0.12,0.21l0.2,0.37l0.29,0.53l0.36,0.66l0.41,0.75l0.22,0.4l0.3,0.56l0.16,0.37l0.02,0.03l1.61-0.16l1.06,3.24
		l1.7-0.17l0.06,0.02l1.57-0.54l1.95,2.69l1.57-0.54l0.92,0.22l1.45-0.34l2.33,1.85l1.45-0.34l0.88,0.16l1.49-0.83l2.3,2.53
		l1.49-0.83l0.4,0.05l1.5-1.12l2.31,2.93l1.5-1.11l0.03,0l4.21,0.64c0.72,0.13,1.47,0.28,2.24,0.45c0.55,0.12,1.08,0.25,1.6,0.39
		L86,88.95l1.73,3.17l1.66-0.71l1.83-0.49l0.99,3.65l1.83-0.49l1.54,0.33l0.78,3.05l1.54,0.34l1.75,2.99l0.49,0.83
		c0.72,1.71,1.19,3.56,1.41,5.54c0.13,1.19,0.18,2.38,0.14,3.57l-0.04,0.25l0.77,1.47l-2.36,2.34l0.77,1.47l0.02-0.13l0.15-0.96
		l0.11-0.72l0.15-0.96l0.1-0.65l0.11-0.68l0.04-0.23l0.07-0.45l0.02-0.16l0.06-0.36l0.77,1.48l-2.42,2.31l0.77,1.49l-0.24,0.66
		l-0.3,0.81l-0.33,0.86l-0.12,0.3l-0.23,0.56l-0.19,0.42l0.26,1.61l-2.84,1.6l0.26,1.61l-0.2,1.52l-2.79,1.25l-0.21,1.52l-1.15,1.28
		l-0.01,0.01c-4.19,4.25-9.68,7.46-16.49,9.49c-2.52,0.75-4.94,1.32-7.23,1.71l-1.25,0.88l-2.83-1.15l-1.25,0.88l-0.93,0.01
		l-1.18-0.01l-1.35,0.67l-2.64-1.47l-1.35,0.67l-1.44,0.88l-2.45-2.32l-1.44,0.88l-0.39-0.06l-1.43,0.52l-2.43-1.83l-1.43,0.52
		l-1.23-0.45l-0.32-2.6l-1.23-0.45l-0.03-0.19l-0.82-1.21l0.68-2.84l-0.82-1.21l-0.99-1.18l1.04-2.91l-0.99-1.18l0.82-2.01
		l0.21-0.51l0.18-0.44l0.11-0.03l1.52,0.57l0.04,3.24l1.27,0.48l0.08,0.09l0.2,0.22l0.02,0.02l0.12,0.13l1.45,0.44l0.88,2.91
		l1.45,0.44l1.78-0.34l0.98,3.5l1.78-0.34l0.81,0.3l0.81,0.28l1.42,0.48l1.21,0.38l0.64,0.19l0.98,0.28l0.62,0.15l0.6,0.12
		l0.54,0.08l0.31,0.04l1.1,0.13l1.01,0.1l0.75,0.06l1.26-0.61l2.63,0.96l1.26-0.61l0.26-0.03l1.24-0.9l2.83,1.16l1.24-0.9l1.37-0.36
		l0.14-0.04l0.17-0.04l0.31-0.1l1.36-0.51l2.02-0.96l2.37-1.36l0.69-0.45l0.12-1.8l3.61-0.12l0.12-1.8l0.09-0.09l0.06-0.06
		l0.25-1.43l2.42-1.62l0.25-1.43l0.07-0.11l0.05-0.08c1.56-3.21,2.2-6.59,1.85-10.14c-0.41-4.17-1.84-7.18-4.21-9.02
		c-2.37-1.84-5.4-3.14-9.1-3.91c-0.33-0.06-0.79-0.13-1.38-0.22l-1.87-0.28c-0.01,0-0.02,0-0.03,0l-2.21-0.31l-2.36-0.33l-1.43,0.5
		l-2.45-1.78l-1.43,0.5L64.7,98.8l-1.52,0.82l-2.22-2.64l-1.52,0.82l-0.24-0.05l-1.61,0.97l-1.97-3.21L54,96.46l-0.33-0.1l-1.55,0.4
		l-1.97-2.52l-1.55,0.4l-0.59-0.34l-1.45-0.17l-1.73-2.35l-1.45-0.17l-0.29-0.23c-0.52-0.44-1.01-0.89-1.45-1.36
		c-2.32-2.48-3.63-5.96-3.93-10.42c-0.15-1.73-0.13-3.42,0.06-5.07l0.02-0.21l-0.27-1.44l1.8-2.31l-0.27-1.44l-0.5-1.73l3.34-1.35
		l-0.5-1.73l-0.15-1.81l3.58-0.62l-0.15-1.81l0.84-0.79l1.9-1.58l0.5-1.56l3.27-0.1l0.5-1.56l3.64-1.82
		c2.03-0.85,4.21-1.53,6.54-2.05c1.89-0.42,3.77-0.73,5.63-0.94l0.74-0.05l0.84-0.03l1.31-0.81l2.72,1.45l1.32-0.81l1.46-1.19
		l2.42,2.87l1.46-1.19l1.51-0.67l2.21,2.46l1.51-0.67l0.03,0.11l0.11,0.34l1.01,1.09l-0.45,2.93l1.01,1.09l1.38,1.06l-1.56,3.1
		l1.38,1.06L88.56,64.86L88.56,64.86z"/>
	<polyline class="st24" points="2.19,9.55 2.19,9.55 2.19,9.55 	"/>
</g>
</svg>
