<?xml version="1.0" encoding="utf-8"?>
<!-- Generator: Adobe Illustrator 23.0.3, SVG Export Plug-In . SVG Version: 6.00 Build 0)  -->
<svg version="1.1" id="Layer_1" xmlns="http://www.w3.org/2000/svg" xmlns:xlink="http://www.w3.org/1999/xlink" x="0px" y="0px"
	 viewBox="0 0 14 14" style="enable-background:new 0 0 14 14;" xml:space="preserve">
<style type="text/css">
	.st0{fill:#4d4d4d;}
</style>
<g>
	<path class="st0" d="M1.57,6.98C1.52,6.92,1.5,6.86,1.5,6.79c0-0.08,0.03-0.15,0.09-0.21l1.05-0.98c0.05-0.05,0.12-0.07,0.19-0.07
		c0.04,0,0.07,0.01,0.11,0.02c0.04,0.01,0.07,0.04,0.1,0.07l2.88,3.11l4.93-6.39c0.06-0.07,0.14-0.11,0.22-0.11
		c0.07,0,0.13,0.02,0.18,0.06l1.14,0.88c0.03,0.02,0.05,0.05,0.07,0.09c0.02,0.04,0.04,0.08,0.04,0.11c0,0.07-0.02,0.13-0.06,0.2
		l-6.4,8.22L1.57,6.98z"/>
</g>
</svg>
