<?xml version="1.0" encoding="utf-8"?>
<!-- Generator: Adobe Illustrator 23.0.3, SVG Export Plug-In . SVG Version: 6.00 Build 0)  -->
<svg version="1.1" id="Layer_1" xmlns="http://www.w3.org/2000/svg" xmlns:xlink="http://www.w3.org/1999/xlink" x="0px" y="0px"
	 viewBox="0 0 16 16" style="enable-background:new 0 0 16 16;" xml:space="preserve">
<g>
	<path d="M15,15H1V1h13.5c0.4-0.3,0.9-0.5,1.2-0.8l0.3,0.5C15.8,1,15.4,1.3,15,1.6V15z M14,2.7c-1,1.1-2.1,2.5-3.4,4.3
		c-1.2,1.8-2.1,3.3-2.7,4.5L7.1,12c-0.6,0.4-1,0.8-1.3,1c-0.1-0.3-0.3-0.9-0.6-1.6L5,10.7C4.6,9.8,4.2,9.1,3.9,8.6
		C3.5,8.2,3.1,7.9,2.7,7.7c0.7-0.8,1.4-1.2,2-1.2c0.5,0,1.1,0.7,1.7,2.1l0.3,0.7c1.2-2,3.1-4.3,5.6-6.7L13,2L2,2v12h12V2.7z"/>
</g>
</svg>
