<?xml version="1.0" encoding="utf-8"?>
<!-- Generator: Adobe Illustrator 23.0.3, SVG Export Plug-In . SVG Version: 6.00 Build 0)  -->
<svg version="1.1" id="Layer_1" xmlns="http://www.w3.org/2000/svg" xmlns:xlink="http://www.w3.org/1999/xlink" x="0px" y="0px"
	 viewBox="0 0 16 16" style="enable-background:new 0 0 16 16;" xml:space="preserve">
<g>
	<path d="M2.67,9.88c-0.1-0.11-0.18-0.2-0.24-0.28C2.37,9.52,2.35,9.45,2.35,9.37c0-0.09,0.05-0.19,0.14-0.28
		C2.57,9,2.69,8.92,2.83,8.84c0.14-0.07,0.3-0.13,0.47-0.18C3.47,8.63,3.63,8.6,3.79,8.6c0.17,0,0.3,0.02,0.41,0.07
		s0.2,0.12,0.3,0.22c0.4,0.42,0.76,0.85,1.09,1.29c0.32,0.44,0.64,0.89,0.95,1.36c0.3-0.8,0.61-1.58,0.93-2.33S8.14,7.72,8.49,7
		s0.75-1.43,1.16-2.13s0.86-1.4,1.34-2.11c0.18-0.26,0.44-0.46,0.78-0.58C12.13,2.06,12.57,2,13.11,2c0.16,0,0.29,0.02,0.39,0.07
		s0.15,0.11,0.15,0.19c0,0.07-0.02,0.13-0.05,0.2c-0.03,0.07-0.08,0.15-0.14,0.23c-1.18,1.65-2.25,3.37-3.22,5.17s-1.8,3.7-2.52,5.7
		c-0.05,0.15-0.16,0.25-0.34,0.33C7.2,13.96,6.94,14,6.59,14c-0.17,0-0.31-0.01-0.42-0.02s-0.21-0.03-0.29-0.06
		c-0.08-0.03-0.14-0.06-0.19-0.11c-0.05-0.04-0.1-0.09-0.13-0.16c-0.22-0.36-0.44-0.7-0.65-1.02c-0.21-0.31-0.43-0.62-0.65-0.91
		c-0.23-0.3-0.47-0.59-0.72-0.9C3.27,10.54,2.98,10.22,2.67,9.88z"/>
</g>
<g>
	<path d="M7.58,6.58L1,0L0,1l6.95,6.95C7.16,7.49,7.36,7.03,7.58,6.58z"/>
	<path d="M10.51,9.51c-0.22,0.44-0.43,0.9-0.64,1.36L15,16l1-1L10.51,9.51z"/>
</g>
</svg>
