<?xml version="1.0" encoding="utf-8"?>
<!-- Generator: Adobe Illustrator 23.0.3, SVG Export Plug-In . SVG Version: 6.00 Build 0)  -->
<svg version="1.1" id="Layer_1" xmlns="http://www.w3.org/2000/svg" xmlns:xlink="http://www.w3.org/1999/xlink" x="0px" y="0px"
	 viewBox="0 0 16 16" style="enable-background:new 0 0 16 16;" xml:space="preserve">
<g>
	<path d="M16,8c-0.48,0.86-1.07,1.6-1.76,2.21c-1.67,1.48-3.75,2.22-6.23,2.22s-4.56-0.74-6.24-2.22C1.08,9.61,0.48,8.87,0,8
		c0.48-0.86,1.08-1.6,1.77-2.22c1.68-1.48,3.76-2.22,6.24-2.22s4.56,0.74,6.23,2.22C14.93,6.4,15.52,7.14,16,8z M10.96,8
		c0-0.8-0.29-1.48-0.87-2.04S8.81,5.11,8,5.11c-0.43,0-0.84,0.09-1.22,0.26l-0.31-0.7C4.21,5.06,2.56,6.17,1.52,8
		c0.3,0.53,0.67,1.01,1.1,1.43c1.04,1,2.31,1.63,3.82,1.89c-0.65-0.29-1.18-0.74-1.58-1.33c-0.4-0.6-0.6-1.26-0.6-1.99
		c0-0.44,0.08-0.87,0.23-1.29l0.75,0.23C5.11,7.29,5.04,7.64,5.04,8c0,0.8,0.29,1.48,0.87,2.05S7.19,10.9,8,10.9
		s1.51-0.28,2.09-0.84S10.96,8.81,10.96,8z M10.24,8c0,0.6-0.22,1.12-0.66,1.55S8.62,10.2,8,10.2c-0.62,0-1.15-0.21-1.59-0.64
		S5.76,8.61,5.76,8c0-0.27,0.05-0.53,0.14-0.77l2.28,1.03L7.11,6C7.39,5.88,7.69,5.81,8,5.81c0.62,0,1.14,0.21,1.58,0.64
		C10.02,6.89,10.24,7.4,10.24,8z M14.48,8c-0.3-0.53-0.67-1.01-1.11-1.44c-1.04-1.01-2.33-1.64-3.86-1.89
		c0.67,0.29,1.2,0.72,1.6,1.31C11.52,6.6,11.73,7.27,11.73,8c0,0.73-0.2,1.39-0.6,1.99s-0.93,1.04-1.58,1.33
		C11.8,10.94,13.44,9.83,14.48,8z"/>
</g>
</svg>
