<?xml version="1.0" encoding="utf-8"?>
<!-- Generator: Adobe Illustrator 23.0.3, SVG Export Plug-In . SVG Version: 6.00 Build 0)  -->
<svg version="1.1" id="Layer_1" xmlns="http://www.w3.org/2000/svg" xmlns:xlink="http://www.w3.org/1999/xlink" x="0px" y="0px"
	 viewBox="0 0 16 16" style="enable-background:new 0 0 16 16;" xml:space="preserve">
<style type="text/css">
	.st0{fill:#008A1A;}
</style>
<g>
	<path d="M13.43,7c0.12-0.26,0.19-0.57,0.19-0.96V1L11.4,2.12L9.15,1v6.06H5.64V3.58L1.38,9.29L5.64,15v-3.47H8v-0.48H5.14v2.43
		L2,9.31V9.29l3.14-4.2v2.45H11V7.06H9.62V1.73l1.77,0.9l1.74-0.9v4.31c0,0.52-0.24,0.84-0.72,0.96H13.43z"/>
	<polygon points="10.33,10 11,9.38 11,8.76 9.65,10 	"/>
</g>
<g>
	<path class="st0" d="M16,12h-3v3h-1v-3H9v-1h3V8h1v3h3v0.9V12z"/>
</g>
</svg>
