<?xml version="1.0" encoding="utf-8"?>
<!-- Generator: Adobe Illustrator 23.0.3, SVG Export Plug-In . SVG Version: 6.00 Build 0)  -->
<svg version="1.1" id="Layer_1" xmlns="http://www.w3.org/2000/svg" xmlns:xlink="http://www.w3.org/1999/xlink" x="0px" y="0px"
	 viewBox="0 0 16 16" style="enable-background:new 0 0 16 16;" xml:space="preserve">
<style type="text/css">
	.st0{fill:#008A1A;}
</style>
<g>
  <path d="M12.41,9c0.48,0.12,0.72,0.44,0.72,0.96v4.31l-1.74-0.9l-1.77,0.9V8.94H11V8.46H5.14v2.45L2,6.71V6.69l3.14-4.17v2.43H8
    V4.47H5.64V1L1.38,6.71l4.26,5.71V8.94h3.51V15l2.25-1.12L13.62,15V9.96c0-0.39-0.07-0.7-0.19-0.96H12.41z"/>
  <polygon points="9.65,6 11,7.24 11,6.62 10.33,6       "/>
</g>
<g>
	<path class="st0" d="M16,4.1V5h-3v3h-1V5H9V4h3V1h1v3h3V4.1z"/>
</g>
</svg>
