<?xml version="1.0" encoding="utf-8"?>
<!-- Generator: Adobe Illustrator 23.0.3, SVG Export Plug-In . SVG Version: 6.00 Build 0)  -->
<svg version="1.1" id="Layer_1" xmlns="http://www.w3.org/2000/svg" xmlns:xlink="http://www.w3.org/1999/xlink" x="0px" y="0px"
	 viewBox="0 0 16 16" style="enable-background:new 0 0 16 16;" xml:space="preserve">
<g>
	<path opacity="0.12" d="M3.5,12.5c0.87,0.67,1.84,0.82,3,1c0.59,0.09,1.71,0.25,3,0c2.33-0.46,5.08-2.24,5-4c-0.04-0.79-0.61-0.79-1-2
		c-0.6-1.87,0.48-2.81,0-4c-0.74-1.84-4.29-1.97-5-2c-2.15-0.08-6.01,0.5-7,3c-0.3,0.75-0.2,1.5,0,3C1.75,9.39,2.01,11.35,3.5,12.5z
		"/>
	<path d="M8.06,14.14c-0.71,0-1.29-0.09-1.64-0.14c-1.21-0.19-2.26-0.35-3.23-1.1h0C1.54,11.62,1.25,9.46,1,7.57
		C0.8,6.03,0.69,5.18,1.04,4.32C2.15,1.52,6.27,0.92,8.52,1c2.09,0.08,4.74,0.54,5.45,2.31c0.28,0.69,0.14,1.3,0.01,1.9
		c-0.14,0.62-0.28,1.26,0,2.14c0.16,0.51,0.36,0.75,0.54,0.99c0.21,0.27,0.46,0.58,0.48,1.14c0.09,2.02-2.77,4-5.4,4.51
		C9.04,14.1,8.53,14.14,8.06,14.14z M3.81,12.1c0.77,0.59,1.65,0.73,2.77,0.9c0.52,0.08,1.6,0.24,2.83,0
		c2.13-0.42,4.66-2.07,4.6-3.49c-0.01-0.24-0.09-0.34-0.27-0.57c-0.21-0.26-0.49-0.62-0.71-1.3C12.66,6.52,12.85,5.67,13,4.99
		c0.12-0.52,0.2-0.9,0.04-1.31C12.64,2.71,10.98,2.09,8.48,2C6.62,1.94,2.87,2.4,1.96,4.68C1.72,5.31,1.8,5.98,2,7.43
		C2.23,9.23,2.48,11.08,3.81,12.1L3.81,12.1z"/>
</g>
</svg>
