<?xml version="1.0" encoding="utf-8"?>
<!-- Generator: Adobe Illustrator 23.0.3, SVG Export Plug-In . SVG Version: 6.00 Build 0)  -->
<svg version="1.1" id="Layer_1" xmlns="http://www.w3.org/2000/svg" xmlns:xlink="http://www.w3.org/1999/xlink" x="0px" y="0px"
	 viewBox="0 0 32 32" style="enable-background:new 0 0 32 32;" xml:space="preserve">
<g>
	<path d="M9,4.9c3.6-1.8,8.1-2.8,11.8-0.7c3.9,2,4.1,7.9,1.2,10.8c-1.6,1.7-3.9,2.3-6,3.1c0,0.7,0,2.1,0,2.9c-0.5,0-1.5,0-2,0
		c0-1.3,0-2.6,0-3.9c3.6-0.9,6.45-3.95,5.95-8.11c-0.33-3.05-3.72-4.91-6.49-3.56C11.21,6.49,12,10.4,9,10.2C9,8.4,9,6.7,9,4.9z"/>
	<circle cx="15.5" cy="26.5" r="2.5"/>
</g>
</svg>
