<?xml version="1.0" encoding="utf-8"?>
<!-- Generator: Adobe Illustrator 23.0.3, SVG Export Plug-In . SVG Version: 6.00 Build 0)  -->
<svg version="1.1" id="Layer_1" xmlns="http://www.w3.org/2000/svg" xmlns:xlink="http://www.w3.org/1999/xlink" x="0px" y="0px"
	 viewBox="0 0 20 20" style="enable-background:new 0 0 20 20;" xml:space="preserve">
<g>
	<path d="M1,10.01C1,9.19,1.11,8.4,1.32,7.63s0.52-1.48,0.92-2.15s0.87-1.28,1.42-1.83s1.16-1.02,1.82-1.42s1.38-0.7,2.14-0.91
		S9.18,1,10,1c0.82,0,1.61,0.11,2.37,0.33c0.76,0.22,1.48,0.53,2.14,0.92c0.67,0.4,1.28,0.87,1.83,1.42
		c0.55,0.55,1.02,1.16,1.42,1.83c0.4,0.67,0.7,1.38,0.92,2.14C18.89,8.4,19,9.19,19,10.01c0,0.82-0.11,1.62-0.32,2.38
		c-0.22,0.76-0.52,1.48-0.92,2.14c-0.4,0.67-0.87,1.28-1.42,1.82c-0.55,0.55-1.16,1.02-1.83,1.41c-0.67,0.39-1.38,0.69-2.14,0.91
		C11.6,18.89,10.81,19,10,19c-0.82,0-1.61-0.11-2.37-0.32c-0.76-0.22-1.48-0.52-2.14-0.92c-0.67-0.4-1.28-0.87-1.82-1.42
		c-0.55-0.55-1.02-1.16-1.42-1.82s-0.7-1.38-0.92-2.14S1,10.83,1,10.01z M2.19,10c0,0.72,0.09,1.41,0.28,2.07
		c0.19,0.66,0.45,1.28,0.79,1.86c0.34,0.58,0.74,1.11,1.22,1.58c0.47,0.47,1,0.88,1.58,1.22c0.58,0.34,1.2,0.6,1.86,0.79
		c0.66,0.19,1.36,0.28,2.07,0.28c0.71,0,1.4-0.09,2.07-0.28c0.66-0.19,1.29-0.45,1.87-0.79c0.58-0.34,1.11-0.75,1.59-1.22
		c0.48-0.47,0.89-1,1.23-1.58c0.34-0.58,0.6-1.2,0.79-1.86c0.19-0.66,0.28-1.35,0.28-2.07c0-0.71-0.09-1.4-0.28-2.07
		s-0.45-1.29-0.8-1.87s-0.75-1.11-1.23-1.59c-0.48-0.48-1.01-0.89-1.59-1.23s-1.2-0.6-1.86-0.79S10.7,2.19,9.99,2.19
		c-0.72,0-1.41,0.09-2.07,0.28S6.63,2.92,6.05,3.26s-1.1,0.75-1.58,1.23S3.59,5.49,3.25,6.07s-0.6,1.2-0.79,1.87S2.19,9.29,2.19,10z
		 M8.82,6h2.76l-2.9,3H15v2H8.68l2.9,3H8.82L5,9.98v0.05L8.82,6z"/>
</g>
</svg>
