<?xml version="1.0" encoding="utf-8"?>
<!-- Generator: Adobe Illustrator 23.0.3, SVG Export Plug-In . SVG Version: 6.00 Build 0)  -->
<svg version="1.1" id="Layer_1" xmlns="http://www.w3.org/2000/svg" xmlns:xlink="http://www.w3.org/1999/xlink" x="0px" y="0px"
	 viewBox="0 0 32 32" style="enable-background:new 0 0 32 32;" xml:space="preserve">
<g>
	<path d="M26,0h1c0,10.7,0,21.3,0,32h-1C26,21.3,26,10.7,26,0z"/>
	<path d="M3,3c6.7,0,13.3,0,20,0v1C16.3,4,9.7,4,3,4V3z"/>
	<path d="M30,3h2v1h-2V3z"/>
	<path d="M3,6c6.7,0,13.3,0,20,0v1C16.3,7,9.7,7,3,7V6z"/>
	<path d="M30,6h2v1h-2V6z"/>
	<path d="M3,9c6.7,0,13.3,0,20,0v1c-6.7,0-13.3,0-20,0V9z"/>
	<path d="M30,9h2v1h-2V9z"/>
	<path d="M3,12c6.7,0,13.3,0,20,0v1c-6.7,0-13.3,0-20,0V12z"/>
	<path d="M30,12h2v1h-2V12z"/>
	<path d="M3,15c6.7,0,13.3,0,20,0v1c-6.7,0-13.3,0-20,0V15z"/>
	<path d="M30,15h2v1h-2V15z"/>
	<path d="M3,18c6.7,0,13.3,0,20,0v1c-6.7,0-13.3,0-20,0V18z"/>
	<path d="M30,18h2v1h-2V18z"/>
	<path d="M3,21c6.7,0,13.3,0,20,0v1c-6.7,0-13.3,0-20,0V21z"/>
	<path d="M30,21h2v1h-2V21z"/>
	<path d="M3,24c6.7,0,13.3,0,20,0v1c-6.7,0-13.3,0-20,0V24z"/>
	<path d="M30,24h2v1h-2V24z"/>
	<path d="M3,27c6.7,0,13.3,0,20,0v1c-6.7,0-13.3,0-20,0V27z"/>
	<path d="M30,27h2v1h-2V27z"/>
</g>
</svg>
