<?xml version="1.0" encoding="utf-8"?>
<!-- Generator: Adobe Illustrator 23.0.3, SVG Export Plug-In . SVG Version: 6.00 Build 0)  -->
<svg version="1.1" id="Layer_1" xmlns="http://www.w3.org/2000/svg" xmlns:xlink="http://www.w3.org/1999/xlink" x="0px" y="0px"
	 viewBox="0 0 16 16" style="enable-background:new 0 0 16 16;" xml:space="preserve">
<g>
	<polygon points="9,6 7,6 7,4 6,4 6,6 4,6 4,7 6,7 6,9 7,9 7,7 9,7 	"/>
</g>
<g>
	<path d="M15.08,13.62c-0.06-0.14-0.13-0.25-0.24-0.34l-3.83-3.64l0,0C11.63,8.75,12,7.67,12,6.5C12,3.46,9.54,1,6.5,1S1,3.46,1,6.5
		S3.46,12,6.5,12c1.08,0,2.08-0.31,2.93-0.85l3.9,3.72c0.08,0.09,0.19,0.16,0.32,0.21s0.28,0.08,0.42,0.08
		c0.15,0,0.29-0.03,0.43-0.08c0.13-0.05,0.25-0.14,0.36-0.25c0.1-0.11,0.18-0.23,0.23-0.36c0.05-0.13,0.08-0.26,0.08-0.4
		C15.17,13.92,15.14,13.77,15.08,13.62z M2,6.5C2,4.01,4.01,2,6.5,2S11,4.01,11,6.5S8.99,11,6.5,11S2,8.99,2,6.5z M10.29,10.48
		C10.29,10.47,10.3,10.47,10.29,10.48C10.3,10.47,10.29,10.47,10.29,10.48z"/>
</g>
</svg>
