<?xml version="1.0" encoding="utf-8"?>
<!-- Generator: Adobe Illustrator 23.0.3, SVG Export Plug-In . SVG Version: 6.00 Build 0)  -->
<svg version="1.1" id="Layer_1" xmlns="http://www.w3.org/2000/svg" xmlns:xlink="http://www.w3.org/1999/xlink" x="0px" y="0px"
	 viewBox="0 0 16 16" style="enable-background:new 0 0 16 16;" xml:space="preserve">
<style type="text/css">
	.st0{opacity:0.97;fill:#32629F;enable-background:new    ;}
	.st1{fill:#A4C1E1;}
</style>
<g>
	<path class="st0" d="M2,6c4,0,8,0,12,0c0,1.3,0,2.7,0,4c-4,0-8,0-12,0C2,8.7,2,7.3,2,6 M3,7c0,0.5,0,1.5,0,2c2.5,0,7.5,0,10,0
		c0-0.5,0-1.5,0-2C10.5,7,5.5,7,3,7z"/>
</g>
<g>
	<path class="st1" d="M3,7c2.5,0,7.5,0,10,0c0,0.5,0,1.5,0,2C10.5,9,5.5,9,3,9C3,8.5,3,7.5,3,7z"/>
</g>
</svg>
