<?xml version="1.0" encoding="utf-8"?>
<!-- Generator: Adobe Illustrator 23.0.3, SVG Export Plug-In . SVG Version: 6.00 Build 0)  -->
<svg version="1.1" id="Layer_1" xmlns="http://www.w3.org/2000/svg" xmlns:xlink="http://www.w3.org/1999/xlink" x="0px" y="0px"
	 viewBox="0 0 24 24" style="enable-background:new 0 0 24 24;" xml:space="preserve">
<path d="M15.1,2.7c-2.8-0.7-5.9,0-8.2,1.9c-1.9,1.5-3,4-3.2,6.4H1c1.4,1.5,2.8,2.8,4.3,4.2c0.2,0.2,0.6,0.2,0.7,0
	c1.4-1.4,2.8-2.8,4.2-4.2H7.6c0.3-2.5,2.7-4.7,5.3-4.7c2.7-0.1,5.1,2.2,5.3,4.8c0.3,2.7-1.9,5.4-4.6,5.7c-0.2,0-0.6,0-0.7,0.3
	c0,1.1,0,2.2,0,3.2c0,0.2,0.1,0.4,0.3,0.4c3-0.1,6-1.8,7.5-4.4c0.8-1.3,1.3-2.9,1.3-4.4v-0.6C21.9,7.3,19,3.6,15.1,2.7z"/>
</svg>
