<?xml version="1.0" encoding="utf-8"?>
<!-- Generator: Adobe Illustrator 23.0.3, SVG Export Plug-In . SVG Version: 6.00 Build 0)  -->
<svg version="1.1" id="Layer_1" xmlns="http://www.w3.org/2000/svg" xmlns:xlink="http://www.w3.org/1999/xlink" x="0px" y="0px"
	 viewBox="0 0 24 24" style="enable-background:new 0 0 24 24;" xml:space="preserve">
<path d="M8.9,2.7c2.8-0.7,6,0,8.2,1.9c1.9,1.5,3.1,4,3.2,6.4H23c-1.4,1.5-2.8,2.8-4.3,4.2c-0.2,0.2-0.6,0.2-0.7,0
	c-1.4-1.4-2.8-2.8-4.2-4.2h2.7c-0.3-2.5-2.7-4.7-5.3-4.7c-2.7-0.1-5.1,2.2-5.3,4.8c-0.3,2.7,1.9,5.4,4.6,5.7c0.2,0,0.6,0,0.7,0.3
	c0,1.1,0,2.2,0,3.2c0,0.2-0.1,0.4-0.3,0.4c-3.1-0.1-6-1.8-7.5-4.4C2.5,15,2.1,13.5,2,11.9v-0.6C2.1,7.3,5,3.6,8.9,2.7z"/>
</svg>
