<?xml version="1.0" encoding="utf-8"?>
<!-- Generator: Adobe Illustrator 23.0.3, SVG Export Plug-In . SVG Version: 6.00 Build 0)  -->
<svg version="1.1" id="Layer_1" xmlns="http://www.w3.org/2000/svg" xmlns:xlink="http://www.w3.org/1999/xlink" x="0px" y="0px"
	 viewBox="0 0 18 18" style="enable-background:new 0 0 18 18;" xml:space="preserve">
<style type="text/css">
	.st0{opacity:0.5;}
</style>
<g class="st0">
	<path d="M9,18c-2.4,0-4.7-0.9-6.4-2.6C0.9,13.7,0,11.4,0,9s0.9-4.7,2.6-6.4S6.6,0,9,0s4.7,0.9,6.4,2.6C17.1,4.3,18,6.6,18,9
		s-0.9,4.7-2.6,6.4C13.7,17.1,11.4,18,9,18z M9,1C4.6,1,1,4.6,1,9s3.6,8,8,8s8-3.6,8-8S13.4,1,9,1z"/>
</g>
<path d="M14,9l-8,4.5v-9"/>
</svg>
