<?xml version="1.0" encoding="utf-8"?>
<!-- Generator: Adobe Illustrator 23.0.3, SVG Export Plug-In . SVG Version: 6.00 Build 0)  -->
<svg version="1.1" id="Layer_1" xmlns="http://www.w3.org/2000/svg" xmlns:xlink="http://www.w3.org/1999/xlink" x="0px" y="0px"
	 viewBox="0 0 16 16" style="enable-background:new 0 0 16 16;" xml:space="preserve">
<style type="text/css">
	.st0{opacity:0.96;fill:#32619E;enable-background:new    ;}
	.st1{fill:#A7C3E2;}
</style>
<g>
	<path class="st0" d="M6,2c1.3,0,2.7,0,4,0c0,1.3,0,2.7,0,4c1.3,0,2.7,0,4,0c0,1.3,0,2.7,0,4c-1.3,0-2.7,0-4,0c0,1.3,0,2.7,0,4
		c-1.3,0-2.7,0-4,0c0-1.3,0-2.7,0-4c-1.3,0-2.7,0-4,0c0-1.3,0-2.7,0-4c1.3,0,2.7,0,4,0C6,4.7,6,3.3,6,2 M7,3c0,1.3,0,2.7,0,4
		C5.7,7,4.3,7,3,7c0,0.5,0,1.5,0,2c1.3,0,2.7,0,4,0c0,1.3,0,2.7,0,4c0.5,0,1.5,0,2,0c0-1.3,0-2.7,0-4c1.3,0,2.7,0,4,0
		c0-0.5,0-1.5,0-2c-1.3,0-2.7,0-4,0c0-1.3,0-2.7,0-4C8.5,3,7.5,3,7,3z"/>
</g>
<g>
	<path class="st1" d="M7,3c0.5,0,1.5,0,2,0c0,1.3,0,2.7,0,4c1.3,0,2.7,0,4,0c0,0.5,0,1.5,0,2c-1.3,0-2.7,0-4,0c0,1.3,0,2.7,0,4
		c-0.5,0-1.5,0-2,0c0-1.3,0-2.7,0-4C5.7,9,4.3,9,3,9c0-0.5,0-1.5,0-2c1.3,0,2.7,0,4,0C7,5.7,7,4.3,7,3z"/>
</g>
</svg>
