<?xml version="1.0" encoding="utf-8"?>
<!-- Generator: Adobe Illustrator 23.0.3, SVG Export Plug-In . SVG Version: 6.00 Build 0)  -->
<svg version="1.1" id="Layer_1" xmlns="http://www.w3.org/2000/svg" xmlns:xlink="http://www.w3.org/1999/xlink" x="0px" y="0px"
	 viewBox="0 0 23 17" style="enable-background:new 0 0 23 17;" xml:space="preserve">
<g>
	<path d="M0,0h23v17H0V0 M1,1c0,5,0,10,0,15c3.3,0,6.7,0,10,0c0-5,0-10,0-15C7.7,1,4.3,1,1,1 M12,1c0,5,0,10,0,15c3.3,0,6.7,0,10,0
		c0-5,0-10,0-15C18.7,1,15.3,1,12,1z"/>
	<path d="M14,3c2,0,4,0,6,0c0,0.3,0,0.7,0,1c-2,0-4,0-6,0C14,3.7,14,3.3,14,3z"/>
	<path d="M14,5c2,0,4,0,6,0c0,0.3,0,0.7,0,1c-2,0-4,0-6,0C14,5.7,14,5.3,14,5z"/>
	<path d="M14,7c2,0,4,0,6,0c0,0.3,0,0.7,0,1c-2,0-4,0-6,0C14,7.7,14,7.3,14,7z"/>
	<path d="M14,9c2,0,4,0,6,0c0,0.3,0,0.7,0,1c-2,0-4,0-6,0C14,9.7,14,9.3,14,9z"/>
	<path d="M14,11c2,0,4,0,6,0c0,0.3,0,0.7,0,1c-2,0-4,0-6,0C14,11.7,14,11.3,14,11z"/>
	<path d="M14,13c2,0,4,0,6,0c0,0.3,0,0.7,0,1c-2,0-4,0-6,0C14,13.7,14,13.3,14,13z"/>
</g>
</svg>
