<?xml version="1.0" encoding="utf-8"?>
<!-- Generator: Adobe Illustrator 23.0.3, SVG Export Plug-In . SVG Version: 6.00 Build 0)  -->
<svg version="1.1" id="Layer_1" xmlns="http://www.w3.org/2000/svg" xmlns:xlink="http://www.w3.org/1999/xlink" x="0px" y="0px"
	 viewBox="0 0 32 32" style="enable-background:new 0 0 32 32;" xml:space="preserve">
<g>
	<path d="M5,0h1c0,10.7,0,21.3,0,32H5C5,21.3,5,10.7,5,0z"/>
	<path d="M0,3h2v1H0V3z"/>
	<path d="M9,3c6.7,0,13.3,0,20,0v1C22.3,4,15.7,4,9,4V3z"/>
	<path d="M0,6h2v1H0V6z"/>
	<path d="M9,6c6.7,0,13.3,0,20,0v1C22.3,7,15.7,7,9,7V6z"/>
	<path d="M0,9h2v1H0V9z"/>
	<path d="M9,9c6.7,0,13.3,0,20,0v1c-6.7,0-13.3,0-20,0V9z"/>
	<path d="M0,12h2v1H0V12z"/>
	<path d="M9,12c6.7,0,13.3,0,20,0v1c-6.7,0-13.3,0-20,0V12z"/>
	<path d="M0,15h2v1H0V15z"/>
	<path d="M9,15c6.7,0,13.3,0,20,0v1c-6.7,0-13.3,0-20,0V15z"/>
	<path d="M0,18h2v1H0V18z"/>
	<path d="M9,18c6.7,0,13.3,0,20,0v1c-6.7,0-13.3,0-20,0V18z"/>
	<path d="M0,21h2v1H0V21z"/>
	<path d="M9,21c6.7,0,13.3,0,20,0v1c-6.7,0-13.3,0-20,0V21z"/>
	<path d="M0,24h2v1H0V24z"/>
	<path d="M9,24c6.7,0,13.3,0,20,0v1c-6.7,0-13.3,0-20,0V24z"/>
	<path d="M0,27h2v1H0V27z"/>
	<path d="M9,27c6.7,0,13.3,0,20,0v1c-6.7,0-13.3,0-20,0V27z"/>
</g>
</svg>
