<?xml version="1.0" encoding="utf-8"?>
<!-- Generator: Adobe Illustrator 23.0.3, SVG Export Plug-In . SVG Version: 6.00 Build 0)  -->
<svg version="1.1" id="Layer_1" xmlns="http://www.w3.org/2000/svg" xmlns:xlink="http://www.w3.org/1999/xlink" x="0px" y="0px"
	 viewBox="0 0 16 16" style="enable-background:new 0 0 16 16;" xml:space="preserve">
<g>
	<rect y="4" width="2" height="8"/>
	<path d="M3,4.7c0.4,0,0.8-0.1,1.3-0.1s0.9-0.1,1.3-0.1c0.4,0,0.8-0.1,1.2-0.1c0.4,0,0.7,0,1,0c0.4,0,0.7,0,0.8,0.1
		C8.9,4.6,9,4.6,9.2,4.8c0.7,0,1.4,0,2,0c0.6,0,1.2,0,1.7,0c0.5,0,1,0,1.4-0.1c0.4,0,0.9-0.1,1.2-0.1c0.2,0.1,0.3,0.3,0.4,0.4
		C16,5.1,16,5.2,16,5.4c0,0.3-0.1,0.5-0.2,0.7c-0.2,0.2-0.4,0.3-0.7,0.5c-0.3,0.1-0.6,0.2-1,0.2c-0.4,0.1-0.7,0.1-1.1,0.1h-2.4
		c0.2,0.2,0.3,0.5,0.5,0.8c0.1,0.3,0.2,0.5,0.2,0.8c0,0.1-0.1,0.2-0.2,0.4c-0.1,0.2-0.3,0.3-0.4,0.5c-0.2,0.2-0.3,0.3-0.5,0.4
		C10,10,9.9,10.1,9.8,10.1c0.1,0,0.2,0.1,0.3,0.2c0.1,0.1,0.1,0.2,0.1,0.4c0,0.1,0,0.3-0.1,0.4c-0.3,0.1-0.6,0.2-0.9,0.2
		c-0.2,0.1-0.5,0.2-0.7,0.2c-0.2,0.1-0.5,0.1-0.7,0.2c-0.3,0.1-0.5,0.1-0.9,0.1c-0.4,0-0.6,0-0.9-0.1c-0.3-0.1-0.6-0.1-0.9-0.3
		c-0.5,0-0.9-0.1-1.3-0.2c-0.4-0.2-0.7-0.4-0.9-0.7V4.7z"/>
</g>
</svg>
