<?xml version="1.0" encoding="utf-8"?>
<!-- Generator: Adobe Illustrator 23.0.3, SVG Export Plug-In . SVG Version: 6.00 Build 0)  -->
<svg version="1.1" id="Layer_1" xmlns="http://www.w3.org/2000/svg" xmlns:xlink="http://www.w3.org/1999/xlink" x="0px" y="0px"
	 viewBox="0 0 20 20" style="enable-background:new 0 0 20 20;" xml:space="preserve">
<g>
	<path d="M19,10.01c0,0.82-0.11,1.61-0.32,2.37c-0.22,0.76-0.52,1.47-0.92,2.14c-0.4,0.67-0.87,1.28-1.42,1.82
		c-0.55,0.55-1.16,1.02-1.82,1.42c-0.67,0.4-1.38,0.7-2.14,0.92C11.61,18.89,10.82,19,10,19c-0.82,0-1.61-0.11-2.37-0.32
		c-0.76-0.22-1.48-0.52-2.14-0.91s-1.28-0.86-1.83-1.41c-0.55-0.55-1.02-1.16-1.42-1.82s-0.7-1.38-0.92-2.14
		C1.11,11.63,1,10.83,1,10.01C1,9.19,1.11,8.4,1.32,7.64C1.54,6.88,1.85,6.17,2.24,5.5s0.87-1.28,1.42-1.83s1.16-1.02,1.83-1.42
		s1.38-0.7,2.14-0.92S9.19,1,10,1c0.82,0,1.61,0.11,2.37,0.32c0.76,0.22,1.48,0.52,2.14,0.91s1.28,0.87,1.82,1.42
		c0.55,0.55,1.02,1.16,1.42,1.83c0.4,0.67,0.7,1.38,0.92,2.15C18.89,8.4,19,9.19,19,10.01z M17.81,10c0-0.71-0.09-1.4-0.28-2.07
		c-0.19-0.66-0.45-1.29-0.79-1.87C16.41,5.49,16,4.96,15.53,4.49s-1-0.89-1.58-1.23s-1.2-0.6-1.86-0.79s-1.36-0.28-2.07-0.28
		c-0.71,0-1.4,0.09-2.06,0.28S6.67,2.92,6.09,3.26S4.99,4.01,4.51,4.49S3.61,5.49,3.27,6.07s-0.61,1.2-0.8,1.87S2.19,9.29,2.19,10
		c0,0.71,0.09,1.4,0.28,2.07c0.19,0.66,0.45,1.29,0.79,1.86c0.34,0.58,0.75,1.1,1.23,1.58c0.48,0.47,1.01,0.88,1.59,1.22
		s1.2,0.6,1.87,0.79c0.66,0.19,1.35,0.28,2.07,0.28c0.72,0,1.41-0.09,2.07-0.28c0.66-0.19,1.29-0.45,1.86-0.79
		c0.58-0.34,1.1-0.74,1.58-1.22c0.47-0.47,0.88-1,1.22-1.58c0.34-0.58,0.6-1.2,0.79-1.86C17.72,11.41,17.81,10.72,17.81,10z
		 M15,10.02V9.98L11.18,14H8.42l2.9-3H5V9h6.32l-2.9-3h2.76L15,10.02z"/>
</g>
</svg>
