<?xml version="1.0" encoding="utf-8"?>
<!-- Generator: Adobe Illustrator 23.0.3, SVG Export Plug-In . SVG Version: 6.00 Build 0)  -->
<svg version="1.1" id="Layer_1" xmlns="http://www.w3.org/2000/svg" xmlns:xlink="http://www.w3.org/1999/xlink" x="0px" y="0px"
	 viewBox="0 0 32 32" style="enable-background:new 0 0 32 32;" xml:space="preserve">
<g>
	<path d="M5,3c7.3,0,14.7,0,22,0v1C19.7,4,12.3,4,5,4V3z"/>
	<path d="M5,6c7.3,0,14.7,0,22,0v1C19.7,7,12.3,7,5,7V6z"/>
	<path d="M5,9c7.3,0,14.7,0,22,0v1c-7.3,0-14.7,0-22,0V9z"/>
	<path d="M5,12c7.3,0,14.7,0,22,0v1c-7.3,0-14.7,0-22,0V12z"/>
	<path d="M5,15c7.3,0,14.7,0,22,0v1c-7.3,0-14.7,0-22,0V15z"/>
	<path d="M5,18c7.3,0,14.7,0,22,0v1c-7.3,0-14.7,0-22,0V18z"/>
	<path d="M5,21c7.3,0,14.7,0,22,0v1c-7.3,0-14.7,0-22,0V21z"/>
	<path d="M5,24c7.3,0,14.7,0,22,0v1c-7.3,0-14.7,0-22,0V24z"/>
	<path d="M5,27c7.3,0,14.7,0,22,0v1c-7.3,0-14.7,0-22,0V27z"/>
</g>
</svg>
