<?xml version="1.0" encoding="utf-8"?>
<!-- Generator: Adobe Illustrator 23.0.3, SVG Export Plug-In . SVG Version: 6.00 Build 0)  -->
<svg version="1.1" id="Layer_1" xmlns="http://www.w3.org/2000/svg" xmlns:xlink="http://www.w3.org/1999/xlink" x="0px" y="0px"
	 viewBox="0 0 18 24" style="enable-background:new 0 0 18 24;" xml:space="preserve">
<g>
	<path d="M7,6.5V4.08c0-0.27,0.05-0.51,0.16-0.74c0.11-0.22,0.25-0.42,0.43-0.6c0.18-0.17,0.39-0.31,0.63-0.41
		c0.24-0.1,0.5-0.15,0.77-0.15c0.28,0,0.54,0.05,0.78,0.15c0.24,0.09,0.46,0.23,0.64,0.41c0.18,0.17,0.33,0.38,0.43,0.6
		C10.95,3.57,11,3.82,11,4.08v7.04c0.29-0.16,0.55-0.36,0.79-0.58c0.24-0.24,0.46-0.51,0.64-0.8s0.32-0.61,0.42-0.94
		S13,8.11,13,7.76V4.08c0-0.53-0.1-1.03-0.31-1.5s-0.5-0.88-0.86-1.23s-0.78-0.63-1.26-0.83c-0.48-0.2-1.01-0.3-1.57-0.3
		c-0.55,0-1.08,0.1-1.56,0.3C6.95,0.72,6.53,1,6.17,1.35C5.8,1.7,5.52,2.11,5.31,2.58S5,3.55,5,4.08v0.04L7,6.5z"/>
	<path d="M11,17.49v2.46c0,0.26-0.05,0.5-0.16,0.73c-0.1,0.23-0.25,0.44-0.43,0.61s-0.4,0.31-0.64,0.41
		c-0.24,0.1-0.51,0.15-0.78,0.15c-0.26,0-0.52-0.05-0.77-0.15c-0.24-0.1-0.45-0.24-0.63-0.41c-0.18-0.18-0.32-0.38-0.43-0.61
		C7.05,20.46,7,20.21,7,19.95l0.04-7.07c-0.63,0.34-1.13,0.81-1.49,1.39C5.19,14.86,5,15.53,5,16.26v3.69c0,0.52,0.1,1.03,0.31,1.49
		c0.2,0.47,0.49,0.87,0.85,1.22c0.36,0.35,0.79,0.63,1.27,0.83s1.01,0.3,1.56,0.3c0.57,0,1.09-0.1,1.57-0.31
		c0.48-0.2,0.91-0.48,1.27-0.82c0.36-0.35,0.65-0.76,0.86-1.22S13,20.48,13,19.95v-0.07L11,17.49z"/>
</g>
<rect x="7.95" y="-0.83" transform="matrix(0.7662 -0.6426 0.6426 0.7662 -5.6069 8.5496)" width="2" height="25.62"/>
</svg>
