<?xml version="1.0" encoding="utf-8"?>
<!-- Generator: Adobe Illustrator 23.0.3, SVG Export Plug-In . SVG Version: 6.00 Build 0)  -->
<svg version="1.1" id="Layer_1" xmlns="http://www.w3.org/2000/svg" xmlns:xlink="http://www.w3.org/1999/xlink" x="0px" y="0px"
	 viewBox="0 0 10 30" style="enable-background:new 0 0 10 30;" xml:space="preserve">
<path d="M4.99,28.79c-0.55,0-1.08-0.1-1.56-0.3c-0.48-0.2-0.91-0.48-1.27-0.83c-0.36-0.35-0.65-0.75-0.85-1.22
	C1.1,25.98,1,25.47,1,24.95v-3.69c0-0.73,0.19-1.4,0.55-1.99c0.36-0.58,0.86-1.05,1.49-1.39L3,24.95c0,0.26,0.05,0.51,0.16,0.73
	c0.11,0.23,0.25,0.43,0.43,0.61c0.18,0.17,0.39,0.31,0.63,0.41c0.25,0.1,0.51,0.15,0.77,0.15c0.27,0,0.54-0.05,0.78-0.15
	c0.24-0.1,0.46-0.24,0.64-0.41c0.18-0.17,0.33-0.38,0.43-0.61C6.95,25.45,7,25.21,7,24.95v-7.09c0.27,0.19,0.54,0.39,0.79,0.62
	c0.25,0.23,0.46,0.5,0.64,0.79c0.18,0.29,0.32,0.6,0.42,0.94C8.95,20.55,9,20.9,9,21.26v3.69c0,0.53-0.1,1.03-0.31,1.49
	c-0.21,0.46-0.5,0.87-0.86,1.22C7.47,28,7.04,28.28,6.56,28.48C6.08,28.69,5.56,28.79,4.99,28.79z"/>
<path d="M3,12.16c-0.58-0.36-1.08-0.83-1.45-1.43C1.19,10.14,1,9.48,1,8.76V5.08c0-0.53,0.1-1.03,0.31-1.5S1.8,2.7,2.16,2.35
	C2.53,2,2.95,1.72,3.44,1.52c0.48-0.2,1.01-0.3,1.56-0.3c0.56,0,1.09,0.1,1.57,0.3S7.47,2,7.83,2.35C8.19,2.7,8.48,3.11,8.69,3.58
	C8.9,4.05,9,4.55,9,5.08v3.68C9,9.11,8.95,9.46,8.85,9.8c-0.1,0.33-0.24,0.65-0.42,0.94c-0.18,0.29-0.4,0.56-0.64,0.8
	C7.55,11.76,7.29,11.96,7,12.12V5.08c0-0.26-0.05-0.51-0.16-0.74c-0.1-0.22-0.25-0.43-0.43-0.6c-0.18-0.18-0.4-0.32-0.64-0.41
	c-0.24-0.1-0.5-0.15-0.78-0.15c-0.27,0-0.53,0.05-0.77,0.15c-0.24,0.1-0.45,0.24-0.63,0.41c-0.18,0.18-0.32,0.38-0.43,0.6
	C3.05,4.57,3,4.81,3,5.08V12.16z"/>
<path d="M4,19v3.23c0,0.16,0.03,0.31,0.08,0.45c0.05,0.14,0.12,0.26,0.21,0.37c0.09,0.11,0.2,0.19,0.32,0.25
	C4.74,23.37,4.87,23.4,5,23.4c0.29,0,0.53-0.12,0.72-0.34C5.91,22.83,6,22.56,6,22.23v-5.22H5.99L4,19z"/>
<path d="M6,11V7.79c0-0.33-0.09-0.61-0.28-0.83C5.54,6.74,5.3,6.62,5,6.62c-0.28,0-0.52,0.11-0.71,0.33C4.1,7.18,4,7.46,4,7.79V13
	L6,11z"/>
<polygon points="5.99,15.01 6,15.01 6,15 "/>
</svg>
