<?xml version="1.0" encoding="utf-8"?>
<!-- Generator: Adobe Illustrator 23.0.3, SVG Export Plug-In . SVG Version: 6.00 Build 0)  -->
<svg version="1.1" id="Layer_1" xmlns="http://www.w3.org/2000/svg" xmlns:xlink="http://www.w3.org/1999/xlink" x="0px" y="0px"
	 viewBox="0 0 18 24" style="enable-background:new 0 0 18 24;" xml:space="preserve">
<path d="M8.99,23.79c-0.55,0-1.08-0.1-1.56-0.3c-0.48-0.2-0.91-0.48-1.27-0.83s-0.65-0.75-0.85-1.22C5.1,20.98,5,20.47,5,19.95
	v-3.69c0-0.73,0.19-1.4,0.55-1.99c0.36-0.58,0.86-1.05,1.49-1.39L7,19.95c0,0.26,0.05,0.51,0.16,0.73c0.11,0.23,0.25,0.43,0.43,0.61
	c0.18,0.17,0.39,0.31,0.63,0.41c0.25,0.1,0.51,0.15,0.77,0.15c0.27,0,0.54-0.05,0.78-0.15s0.46-0.24,0.64-0.41s0.33-0.38,0.43-0.61
	c0.11-0.23,0.16-0.47,0.16-0.73v-7.09c0.27,0.19,0.54,0.39,0.79,0.62s0.46,0.5,0.64,0.79s0.32,0.6,0.42,0.94
	c0.1,0.34,0.15,0.69,0.15,1.05v3.69c0,0.53-0.1,1.03-0.31,1.49s-0.5,0.87-0.86,1.22c-0.36,0.34-0.79,0.62-1.27,0.82
	C10.08,23.69,9.56,23.79,8.99,23.79z"/>
<path d="M8.99,18.4c-0.14,0-0.27-0.03-0.39-0.09s-0.23-0.15-0.32-0.25c-0.09-0.11-0.16-0.23-0.21-0.37
	c-0.05-0.14-0.08-0.29-0.08-0.45V6.79c0-0.33,0.1-0.61,0.29-0.83c0.19-0.22,0.43-0.33,0.71-0.33c0.29,0,0.53,0.11,0.72,0.33
	c0.18,0.22,0.28,0.5,0.28,0.83v10.45c0,0.32-0.09,0.59-0.28,0.82C9.52,18.28,9.28,18.4,8.99,18.4z"/>
<path d="M7,11.16c-0.58-0.36-1.08-0.83-1.45-1.43C5.19,9.14,5,8.48,5,7.76V4.08c0-0.53,0.1-1.03,0.31-1.5S5.8,1.7,6.17,1.35
	C6.53,1,6.95,0.72,7.44,0.52c0.48-0.2,1.01-0.3,1.56-0.3c0.56,0,1.09,0.1,1.57,0.3s0.9,0.48,1.26,0.83
	c0.36,0.35,0.65,0.76,0.86,1.23S13,3.55,13,4.08v3.68c0,0.35-0.05,0.71-0.15,1.04c-0.1,0.33-0.24,0.65-0.42,0.94s-0.4,0.56-0.64,0.8
	c-0.24,0.22-0.5,0.42-0.79,0.58V4.08c0-0.26-0.05-0.51-0.16-0.74c-0.1-0.22-0.25-0.43-0.43-0.6c-0.18-0.18-0.4-0.32-0.64-0.41
	c-0.24-0.1-0.5-0.15-0.78-0.15c-0.27,0-0.53,0.05-0.77,0.15c-0.24,0.1-0.45,0.24-0.63,0.41c-0.18,0.18-0.32,0.38-0.43,0.6
	C7.05,3.57,7,3.81,7,4.08V11.16z"/>
</svg>
