<?xml version="1.0" encoding="utf-8"?>
<!-- Generator: Adobe Illustrator 23.0.3, SVG Export Plug-In . SVG Version: 6.00 Build 0)  -->
<svg version="1.1" id="Layer_1" xmlns="http://www.w3.org/2000/svg" xmlns:xlink="http://www.w3.org/1999/xlink" x="0px" y="0px"
	 viewBox="0 0 10 30" style="enable-background:new 0 0 10 30;" xml:space="preserve">
<path d="M4.99,26.79c-0.55,0-1.08-0.1-1.56-0.3c-0.48-0.2-0.91-0.48-1.27-0.83c-0.36-0.35-0.65-0.75-0.85-1.22
	C1.1,23.98,1,23.47,1,22.95v-3.69c0-0.73,0.19-1.4,0.55-1.99c0.36-0.58,0.86-1.05,1.49-1.39L3,22.95c0,0.26,0.05,0.51,0.16,0.73
	c0.11,0.23,0.25,0.43,0.43,0.61c0.18,0.17,0.39,0.31,0.63,0.41c0.25,0.1,0.51,0.15,0.77,0.15c0.27,0,0.54-0.05,0.78-0.15
	c0.24-0.1,0.46-0.24,0.64-0.41c0.18-0.17,0.33-0.38,0.43-0.61C6.95,23.45,7,23.21,7,22.95v-7.09c0.27,0.19,0.54,0.39,0.79,0.62
	c0.25,0.23,0.46,0.5,0.64,0.79c0.18,0.29,0.32,0.6,0.42,0.94C8.95,18.55,9,18.9,9,19.26v3.69c0,0.53-0.1,1.03-0.31,1.49
	c-0.21,0.46-0.5,0.87-0.86,1.22C7.47,26,7.04,26.28,6.56,26.48C6.08,26.69,5.56,26.79,4.99,26.79z"/>
<path d="M4.99,21.4c-0.14,0-0.27-0.03-0.39-0.09c-0.12-0.06-0.23-0.15-0.32-0.25c-0.09-0.11-0.16-0.23-0.21-0.37
	c-0.05-0.14-0.08-0.29-0.08-0.45V9.79c0-0.33,0.1-0.61,0.29-0.83c0.19-0.22,0.43-0.33,0.71-0.33c0.29,0,0.53,0.11,0.72,0.33
	c0.18,0.22,0.28,0.5,0.28,0.83v10.45c0,0.32-0.09,0.59-0.28,0.82C5.52,21.28,5.28,21.4,4.99,21.4z"/>
<path d="M3,14.16c-0.58-0.36-1.08-0.83-1.45-1.43C1.19,12.14,1,11.48,1,10.76V7.08c0-0.53,0.1-1.03,0.31-1.5S1.8,4.7,2.17,4.35
	C2.53,4,2.95,3.72,3.44,3.52c0.48-0.2,1.01-0.3,1.56-0.3c0.56,0,1.09,0.1,1.57,0.3C7.05,3.72,7.47,4,7.83,4.35
	C8.19,4.7,8.48,5.11,8.69,5.58C8.9,6.05,9,6.55,9,7.08v3.68c0,0.35-0.05,0.71-0.15,1.04c-0.1,0.33-0.24,0.65-0.42,0.94
	c-0.18,0.29-0.4,0.56-0.64,0.8C7.55,13.76,7.29,13.96,7,14.12V7.08c0-0.26-0.05-0.51-0.16-0.74c-0.1-0.22-0.25-0.43-0.43-0.6
	c-0.18-0.18-0.4-0.32-0.64-0.41c-0.24-0.1-0.5-0.15-0.78-0.15c-0.27,0-0.53,0.05-0.77,0.15c-0.24,0.1-0.45,0.24-0.63,0.41
	c-0.18,0.18-0.32,0.38-0.43,0.6C3.05,6.57,3,6.81,3,7.08V14.16z"/>
</svg>
