<?xml version="1.0" encoding="utf-8"?>
<!-- Generator: Adobe Illustrator 23.0.3, SVG Export Plug-In . SVG Version: 6.00 Build 0)  -->
<svg version="1.1" id="Layer_1" xmlns="http://www.w3.org/2000/svg" xmlns:xlink="http://www.w3.org/1999/xlink" x="0px" y="0px"
	 viewBox="0 0 24 24" style="enable-background:new 0 0 24 24;" xml:space="preserve">
<g>
	<path d="M3.27,16l2-2H10v4.73l-2,2v-3.54L4.19,21L3,19.82L6.81,16H3.27z"/>
</g>
<g>
	<path d="M8,3.27l2,2V10H5.27l-2-2h3.54L3,4.19L4.18,3L8,6.81V3.27z"/>
</g>
<g>
	<path d="M16,20.73l-2-2V14h4.73l2,2h-3.54L21,19.81L19.82,21L16,17.19V20.73z"/>
</g>
<g>
	<path d="M20.73,8l-2,2H14V5.27l2-2v3.54L19.81,3L21,4.18L17.19,8H20.73z"/>
</g>
</svg>
