<?xml version="1.0" encoding="utf-8"?>
<!-- Generator: Adobe Illustrator 23.0.3, SVG Export Plug-In . SVG Version: 6.00 Build 0)  -->
<svg version="1.1" id="Layer_1" xmlns="http://www.w3.org/2000/svg" xmlns:xlink="http://www.w3.org/1999/xlink" x="0px" y="0px"
	 viewBox="0 0 32 32" style="enable-background:new 0 0 32 32;" xml:space="preserve">
<style type="text/css">
	.st0{fill:#f10000;}
</style>
<path class="st0" d="M16,30c-3.74,0-7.26-1.46-9.9-4.1S2,19.74,2,16s1.46-7.26,4.1-9.9S12.26,2,16,2s7.26,1.46,9.9,4.1
			S30,12.26,30,16s-1.46,7.26-4.1,9.9S19.74,30,16,30z M16,4C9.38,4,4,9.38,4,16s5.38,12,12,12s12-5.38,12-12S22.62,4,16,4z"/>
<rect x="9.5" y="9.5" class="st0" width="13" height="13"/>
</svg>
