<?xml version="1.0" encoding="utf-8"?>
<!-- Generator: Adobe Illustrator 23.0.3, SVG Export Plug-In . SVG Version: 6.00 Build 0)  -->
<svg version="1.1" id="Layer_1" xmlns="http://www.w3.org/2000/svg" xmlns:xlink="http://www.w3.org/1999/xlink" x="0px" y="0px"
	 viewBox="0 0 64 64" style="enable-background:new 0 0 64 64;" xml:space="preserve">
<style type="text/css">
	.st0{fill:#DC3236;}
</style>
<g>
	<path class="st0" d="M26.43,8.05c3.7-0.06,7.43-0.08,11.13,0c2.05,0.38,1.89,2.76,1.8,4.35c3.11,0,6.23-0.01,9.34,0
		c2.01,0.05,3.78,1.83,3.83,3.84c0.03,3.43,0,6.86,0.01,10.29c-1.03,0.04-2.05,0.01-3.06,0.01c0,8.59,0.01,17.17,0,25.75
		c-0.01,1.28-1.29,1.93-2.34,2.29c-3.18,1.03-6.54,1.14-9.84,1.33c-6.28,0.13-12.64,0.3-18.84-0.88c-1.48-0.39-3.61-0.79-3.93-2.58
		c-0.04-8.64,0-17.28-0.01-25.92c-1.03,0.01-2.05,0.01-3.06-0.01c0.03-3.43-0.01-6.86,0.01-10.29c0.05-2.01,1.81-3.78,3.83-3.84
		c3.11-0.03,6.23,0.01,9.34-0.03C24.53,10.78,24.38,8.41,26.43,8.05 M15.45,16.4c-0.01,2.05,0.01,4.1,0,6.15
		c11.03,0,22.05,0,33.08,0c0-2.04,0-4.08,0-6.11c-11.01-0.03-22.03-0.06-33.04-0.04 M18.5,26.54c0,8.14,0,16.27,0,24.4
		c8.88,1.48,18.1,1.49,26.98,0c0-8.14,0-16.27,0-24.4C36.49,26.54,27.49,26.55,18.5,26.54z"/>
	<path class="st0" d="M22.7,30.64c1.06,0,2.13,0,3.2,0c0,5.8,0,11.6,0,17.4c-1.06,0-2.13,0-3.2,0C22.7,42.24,22.7,36.44,22.7,30.64z
		"/>
	<path class="st0" d="M30.53,30.62c1.06,0,2.13,0,3.18,0c0.01,5.8,0.01,11.6,0,17.4c-1.06,0-2.13,0.01-3.19-0.01
		C30.54,42.23,30.53,36.43,30.53,30.62z"/>
	<path class="st0" d="M38.08,30.64c1.06,0,2.13,0,3.2,0c0,5.8,0,11.6,0,17.4c-1.06,0-2.13,0-3.19,0
		C38.08,42.24,38.08,36.44,38.08,30.64z"/>
</g>
</svg>
