<?xml version="1.0" encoding="utf-8"?>
<!-- Generator: Adobe Illustrator 23.0.3, SVG Export Plug-In . SVG Version: 6.00 Build 0)  -->
<svg version="1.1" id="Layer_1" xmlns="http://www.w3.org/2000/svg" xmlns:xlink="http://www.w3.org/1999/xlink" x="0px" y="0px"
	 viewBox="0 0 32 32" style="enable-background:new 0 0 32 32;" xml:space="preserve">
<g>
	<path d="M15,0h1c0,10.7,0,21.3,0,32h-1C15,21.3,15,10.7,15,0z"/>
	<path d="M2,3c2.8,0,8.3,0,11,0v1C10.3,4,4.8,4,2,4V3z"/>
	<path d="M18,3c4,0,8,0,12,0v1c-4,0-8,0-12,0V3z"/>
	<path d="M2,6c2.8,0,8.3,0,11,0v1C10.3,7,4.8,7,2,7V6z"/>
	<path d="M18,6c4,0,8,0,12,0v1c-4,0-8,0-12,0V6z"/>
	<path d="M2,9c2.8,0,8.3,0,11,0v1c-2.8,0-8.3,0-11,0V9z"/>
	<path d="M18,9c4,0,8,0,12,0v1c-4,0-8,0-12,0V9z"/>
	<path d="M2,12c2.8,0,8.3,0,11,0v1c-2.8,0-8.3,0-11,0V12z"/>
	<path d="M18,12c4,0,8,0,12,0v1c-4,0-8,0-12,0V12z"/>
	<path d="M2,15c2.8,0,8.3,0,11,0v1c-2.8,0-8.3,0-11,0V15z"/>
	<path d="M18,15c4,0,8,0,12,0v1c-4,0-8,0-12,0V15z"/>
	<path d="M2,18c2.8,0,8.3,0,11,0v1c-2.8,0-8.3,0-11,0V18z"/>
	<path d="M18,18c4,0,8,0,12,0v1c-4,0-8,0-12,0V18z"/>
	<path d="M2,21c2.8,0,8.3,0,11,0v1c-2.8,0-8.3,0-11,0V21z"/>
	<path d="M18,21c4,0,8,0,12,0v1c-4,0-8,0-12,0V21z"/>
	<path d="M2,24c2.8,0,8.3,0,11,0v1c-2.8,0-8.3,0-11,0V24z"/>
	<path d="M18,24c4,0,8,0,12,0v1c-4,0-8,0-12,0V24z"/>
	<path d="M2,27c2.8,0,8.3,0,11,0v1c-2.8,0-8.3,0-11,0V27z"/>
	<path d="M18,27c4,0,8,0,12,0v1c-4,0-8,0-12,0V27z"/>
</g>
</svg>
