<?xml version="1.0" encoding="utf-8"?>
<!-- Generator: Adobe Illustrator 23.0.3, SVG Export Plug-In . SVG Version: 6.00 Build 0)  -->
<svg version="1.1" id="Layer_1" xmlns="http://www.w3.org/2000/svg" xmlns:xlink="http://www.w3.org/1999/xlink" x="0px" y="0px"
	 viewBox="0 0 22 22" style="enable-background:new 0 0 22 22;" xml:space="preserve">
<g>
	<path d="M7.36,1.76c0.45-0.37,1.2-0.04,1.25,0.54c0.02,0.81,0,1.63,0.01,2.44c2.95,0.31,5.9,1.07,8.45,2.63
		c1.3,0.82,2.51,1.87,3.26,3.23c0.77,1.36,0.9,3.06,0.29,4.5c-1.17,2.72-3.94,4.29-6.6,5.27c-0.48,0.17-0.82-0.57-0.38-0.82
		c1.29-0.63,2.59-1.5,3.18-2.86c0.62-1.33-0.02-2.88-1.11-3.75c-1.97-1.63-4.59-2.19-7.09-2.39c-0.01,0.85,0.01,1.7-0.01,2.55
		c-0.06,0.57-0.79,0.87-1.25,0.53c-2.05-1.79-4.09-3.59-6.14-5.38C0.92,7.95,0.92,7.4,1.25,7.11C3.28,5.34,5.32,3.55,7.36,1.76z"/>
</g>
</svg>
