<?xml version="1.0" encoding="utf-8"?>
<!-- Generator: Adobe Illustrator 23.0.3, SVG Export Plug-In . SVG Version: 6.00 Build 0)  -->
<svg version="1.1" id="Layer_1" xmlns="http://www.w3.org/2000/svg" xmlns:xlink="http://www.w3.org/1999/xlink" x="0px" y="0px"
	 viewBox="0 0 64 64" style="enable-background:new 0 0 64 64;" xml:space="preserve">
<style type="text/css">
	.st0{fill:#DC3236;}
	.st1{fill:#3C6EFF;}
</style>
<g>
	<path class="st0" d="M31.43,6.73c1.11-1.6,3.5-2.1,5.13-1.01c2.46,1.69,4.86,3.46,7.3,5.17c0.84-1.24,1.93-3.2,3.76-2.4
		c2.94,1.97,5.84,4.07,8.7,6.17c1.4,1.44-0.09,3.16-1,4.37c2.49,1.8,5.03,3.5,7.46,5.36c1.67,1.46,1.56,4.12,0.1,5.69
		c-1.7,2.39-3.39,4.77-5.09,7.16c-0.81-0.6-1.66-1.19-2.49-1.77c-0.03,6.72,0.06,13.45-0.04,20.15c-0.79,2.07-3.47,2.16-5.34,2.59
		c-7.52,0.87-15.18,0.87-22.69-0.01c-1.84-0.43-4.6-0.53-5.26-2.67c-0.06-9.37-0.01-18.73-0.03-28.11c7.35,0,14.69,0,22.02,0
		c-6.02-4.32-12.09-8.57-18.11-12.9C27.71,11.9,29.57,9.31,31.43,6.73 M31.13,13.72c8.56,6.1,17.15,12.19,25.71,18.29
		c1.13-1.59,2.26-3.19,3.4-4.77c-8.57-6.09-17.13-12.18-25.69-18.27C33.4,10.53,32.27,12.13,31.13,13.72 M25.77,30.88
		c0,7.7,0,15.4,0,23.12c8.46,1.43,17.26,1.41,25.74,0.01c0-7.07,0-14.16,0-21.24c-0.9-0.61-1.76-1.37-2.73-1.87
		C41.1,30.86,33.43,30.89,25.77,30.88z"/>
	<path class="st1" d="M13.43,20.95c5.33-2.83,12.12-2.59,17.25,0.57c-0.09,0.23-0.17,0.46-0.24,0.69
		c-7.95-3.2-17.58,2.93-18.09,11.46c1.63,0,3.26,0,4.89,0c-2.84,3.63-5.69,7.27-8.55,10.9c-2.9-3.63-5.8-7.26-8.69-10.92
		c1.37,0.01,2.76,0,4.13,0.01C5.02,28.28,8.55,23.42,13.43,20.95z"/>
	<path class="st0" d="M29.77,35.56c1.01,0,2.04,0,3.06,0c0,5.22-0.01,10.45,0,15.66c-1.01,0-2.03,0-3.04,0
		C29.75,46,29.8,40.78,29.77,35.56z"/>
	<path class="st0" d="M37.24,35.55c1.01,0.01,2.04,0,3.07,0.01c-0.04,5.23,0.01,10.45-0.03,15.66c-1.01-0.01-2.03-0.01-3.04-0.01
		C37.24,46,37.24,40.78,37.24,35.55z"/>
	<path class="st0" d="M44.43,35.56c1.01,0,2.03,0,3.04,0c0,5.23,0,10.45,0,15.68c-1.01-0.01-2.03,0-3.04-0.01
		C44.43,46,44.46,40.78,44.43,35.56z"/>
</g>
</svg>
