<?xml version="1.0" encoding="utf-8"?>
<!-- Generator: Adobe Illustrator 23.0.3, SVG Export Plug-In . SVG Version: 6.00 Build 0)  -->
<svg version="1.1" id="Layer_1" xmlns="http://www.w3.org/2000/svg" xmlns:xlink="http://www.w3.org/1999/xlink" x="0px" y="0px"
	 viewBox="0 0 16 16" style="enable-background:new 0 0 16 16;" xml:space="preserve">
<style type="text/css">
	.st0{fill:#DC3236;}
</style>
<g>
	<path class="st0" d="M14.9,1.07c0,0.03-0.07,0.09-0.2,0.17c-0.14,0.08-0.33,0.2-0.58,0.36s-0.55,0.37-0.91,0.62
		c-0.36,0.25-0.76,0.57-1.2,0.94c-0.44,0.38-0.93,0.82-1.45,1.33C10.04,4.98,9.48,5.58,8.9,6.25c0.03,0.04,0.07,0.1,0.14,0.18
		c0.06,0.08,0.13,0.16,0.21,0.25c0.07,0.09,0.14,0.17,0.21,0.25C9.53,7.01,9.58,7.07,9.6,7.1c0.47,0.6,0.88,1.19,1.25,1.78
		c0.37,0.59,0.69,1.14,0.96,1.68s0.5,1.04,0.7,1.52c0.19,0.48,0.34,0.9,0.46,1.27c0.12,0.38,0.2,0.7,0.25,0.96s0.08,0.45,0.08,0.57
		c0,0.07-0.01,0.12-0.03,0.12h-0.01c-0.03,0-0.1-0.08-0.19-0.25c-0.09-0.17-0.23-0.4-0.41-0.71s-0.41-0.68-0.68-1.11
		s-0.62-0.91-1.02-1.44c-0.4-0.53-0.87-1.1-1.4-1.71C9.03,9.17,8.42,8.53,7.72,7.87L7.67,7.93C7.63,7.97,7.58,8.03,7.52,8.1
		C7.47,8.17,7.4,8.25,7.33,8.34c-0.07,0.09-0.14,0.18-0.2,0.27c-0.49,0.7-0.92,1.33-1.26,1.91c-0.35,0.58-0.63,1.08-0.85,1.52
		c-0.22,0.43-0.39,0.78-0.5,1.05c-0.12,0.27-0.19,0.44-0.24,0.52c-0.05,0.08-0.12,0.13-0.22,0.13c-0.05,0-0.09-0.01-0.14-0.04
		c-0.03-0.02-0.07-0.05-0.14-0.09c-0.07-0.05-0.16-0.11-0.26-0.18c-0.1-0.07-0.21-0.14-0.33-0.22c-0.12-0.08-0.23-0.16-0.34-0.23
		s-0.22-0.14-0.31-0.2s-0.17-0.11-0.23-0.14c-0.04-0.02-0.08-0.05-0.11-0.09c-0.03-0.04-0.04-0.07-0.04-0.12
		c0-0.02,0.01-0.06,0.03-0.11c0.09-0.2,0.24-0.48,0.45-0.84c0.21-0.36,0.49-0.79,0.82-1.27s0.74-1.03,1.22-1.64s1.03-1.24,1.65-1.92
		C5.7,6.09,5.1,5.61,4.55,5.19C4,4.77,3.51,4.41,3.08,4.1S2.27,3.55,1.96,3.35S1.41,3,1.24,2.9c-0.04-0.03-0.08-0.05-0.1-0.07
		C1.11,2.8,1.09,2.78,1.09,2.73c0-0.04,0.02-0.09,0.06-0.14c0.02-0.03,0.07-0.11,0.16-0.22c0.09-0.12,0.19-0.25,0.31-0.39
		c0.12-0.15,0.25-0.3,0.38-0.46S2.28,1.23,2.4,1.12c0.04-0.03,0.07-0.05,0.1-0.08C2.53,1.01,2.57,1,2.62,1
		c0.04,0,0.08,0.01,0.12,0.04c0.1,0.06,0.32,0.19,0.63,0.4s0.71,0.49,1.16,0.84s0.95,0.76,1.5,1.23c0.54,0.48,1.1,1,1.65,1.58
		c0.45-0.45,0.93-0.87,1.44-1.25c0.51-0.38,1.02-0.72,1.52-1.02c0.5-0.3,0.99-0.56,1.46-0.78c0.47-0.23,0.89-0.41,1.27-0.56
		c0.38-0.15,0.7-0.26,0.96-0.33c0.26-0.07,0.43-0.11,0.51-0.11c0.03,0,0.05,0,0.05,0.01L14.9,1.07L14.9,1.07z"/>
</g>
</svg>
